<svg id="Capa_1" data-name="Capa 1" xmlns="http://www.w3.org/2000/svg" viewBox="0 0 1298.82 700.18"><defs><style>.cls-1,.cls-10,.cls-11,.cls-12,.cls-13,.cls-14,.cls-16,.cls-17,.cls-2,.cls-3,.cls-4,.cls-5,.cls-6,.cls-7,.cls-8,.cls-9{fill:none;stroke:#000;}.cls-1,.cls-10,.cls-2,.cls-3,.cls-4,.cls-5,.cls-6,.cls-7,.cls-8,.cls-9{stroke-linecap:round;}.cls-1,.cls-10,.cls-16,.cls-2,.cls-3,.cls-4,.cls-5,.cls-6,.cls-7,.cls-8,.cls-9{stroke-linejoin:round;}.cls-1{stroke-width:7px;}.cls-10,.cls-16,.cls-17,.cls-2,.cls-3,.cls-4,.cls-5,.cls-6,.cls-7,.cls-8,.cls-9{stroke-width:3px;}.cls-3{stroke-dasharray:11.42 11.42;}.cls-4{stroke-dasharray:12.4 12.4;}.cls-5{stroke-dasharray:11.31 11.31;}.cls-6{stroke-dasharray:11.5 11.5;}.cls-7{stroke-dasharray:10.96 10.96;}.cls-8{stroke-dasharray:12.71 12.71;}.cls-9{stroke-dasharray:11.99 11.99;}.cls-10{stroke-dasharray:10.95 10.95;}.cls-11,.cls-12,.cls-13,.cls-14,.cls-17{stroke-miterlimit:10;}.cls-11{stroke-width:2px;}.cls-12,.cls-13,.cls-14{stroke-width:4px;}.cls-13{stroke-dasharray:6 6;}.cls-14{stroke-dasharray:5.93 5.93;}.cls-15{fill:#fff;}.cls-16{stroke-dasharray:6;}</style></defs><line class="cls-1" x1="6.8" y1="322.14" x2="174" y2="322.14"/><line class="cls-1" x1="7.1" y1="397.64" x2="184.4" y2="397.64"/><line class="cls-1" x1="364.1" y1="396.64" x2="550.1" y2="396.64"/><polyline class="cls-1" points="550.1 472.14 364.1 472.14 348.8 485.24 348.8 640.64"/><polyline class="cls-1" points="198.8 640.34 198.8 484.94 183.8 472.14 6.5 472.14"/><path class="cls-1" d="M198.8,162.44v147.3L174,322.14h-1.9"/><polyline class="cls-1" points="348.8 162.74 348.8 310.04 364.4 322.14 550.4 322.14"/><line class="cls-1" x1="274.5" y1="310.14" x2="274.5" y2="162.84"/><line class="cls-1" x1="273.5" y1="640.74" x2="273.5" y2="485.34"/><line class="cls-2" x1="1.5" y1="435.14" x2="7.5" y2="435.14"/><line class="cls-3" x1="18.9" y1="435.04" x2="150.3" y2="434.24"/><line class="cls-2" x1="156" y1="434.14" x2="162" y2="434.14"/><line class="cls-2" x1="1.5" y1="360.14" x2="7.5" y2="360.14"/><line class="cls-4" x1="19.9" y1="360.14" x2="162.5" y2="360.14"/><line class="cls-2" x1="168.7" y1="360.14" x2="174.7" y2="360.14"/><line class="cls-2" x1="371.8" y1="434.14" x2="377.8" y2="434.14"/><line class="cls-5" x1="389.1" y1="434.14" x2="541.8" y2="434.14"/><line class="cls-2" x1="547.5" y1="434.14" x2="553.5" y2="434.14"/><line class="cls-2" x1="392" y1="359.14" x2="398" y2="359.14"/><line class="cls-6" x1="409.5" y1="359.14" x2="541.8" y2="359.14"/><line class="cls-2" x1="547.5" y1="359.14" x2="553.5" y2="359.14"/><line class="cls-2" x1="312" y1="644.64" x2="312" y2="638.64"/><line class="cls-7" x1="312" y1="627.64" x2="312" y2="523.54"/><line class="cls-2" x1="312" y1="518.04" x2="312" y2="512.04"/><line class="cls-2" x1="237" y1="644.64" x2="237" y2="638.64"/><line class="cls-8" x1="237" y1="625.94" x2="237" y2="505.24"/><line class="cls-2" x1="237" y1="498.84" x2="237" y2="492.84"/><line class="cls-2" x1="311" y1="303.44" x2="311" y2="297.44"/><line class="cls-9" x1="311" y1="285.54" x2="311" y2="171.64"/><line class="cls-2" x1="311" y1="165.64" x2="311" y2="159.64"/><line class="cls-2" x1="236" y1="292.04" x2="236" y2="286.04"/><line class="cls-10" x1="236" y1="275.14" x2="236" y2="171.14"/><line class="cls-2" x1="236" y1="165.64" x2="236" y2="159.64"/><rect x="158" y="399.14" width="11" height="71"/><rect x="380.5" y="324.64" width="11" height="71"/><rect x="276.5" y="503.14" width="71" height="11"/><rect x="202" y="280.64" width="71" height="11"/><line class="cls-11" x1="325.5" y1="538.54" x2="325.5" y2="566.64"/><polygon points="318.1 544.24 325.5 541.04 332.9 544.24 325.5 526.64 318.1 544.24"/><line class="cls-11" x1="325.5" y1="555.64" x2="332.2" y2="548.94"/><polygon points="333.1 555.84 330.9 550.24 325.3 548.04 338.5 542.64 333.1 555.84"/><line class="cls-11" x1="222" y1="263.74" x2="222" y2="235.64"/><polygon points="229.4 258.04 222 261.24 214.6 258.04 222 275.64 229.4 258.04"/><line class="cls-11" x1="222" y1="246.64" x2="215.3" y2="253.34"/><polygon points="214.4 246.44 216.6 252.04 222.2 254.24 209 259.64 214.4 246.44"/><line class="cls-11" x1="412.2" y1="346.44" x2="440.3" y2="346.44"/><polygon points="417.8 353.84 414.7 346.44 417.8 338.94 400.3 346.44 417.8 353.84"/><line class="cls-11" x1="429.3" y1="346.44" x2="422.6" y2="339.74"/><polygon points="429.5 338.74 423.9 341.04 421.6 346.64 416.3 333.44 429.5 338.74"/><line class="cls-11" x1="137.3" y1="449.94" x2="109.3" y2="449.94"/><polygon points="131.7 442.44 134.8 449.94 131.7 457.34 149.3 449.94 131.7 442.44"/><line class="cls-11" x1="120.3" y1="449.94" x2="126.9" y2="456.54"/><polygon points="120 457.54 125.6 455.24 127.9 449.64 133.3 462.94 120 457.54"/><path d="M213.7,221.94a4.56,4.56,0,1,1-4.5-4.9A4.7,4.7,0,0,1,213.7,221.94Zm-7.3,0a2.76,2.76,0,1,0,5.5-.5,2.72,2.72,0,0,0-2.7-2.5,2.91,2.91,0,0,0-2.8,3Z"/><path d="M213.7,176.54h5.5a1,1,0,0,1,.9.7l1.7,5.6a15,15,0,0,1,7.4,11.3h0c1.5,11.8-.9,20.6-7.3,26.3-.1,4.2-.9,8.5-2.4,11.1a4.39,4.39,0,0,1-3.6,2.2l-2.3.1a1,1,0,0,1-.9,1h-3.6a1,1,0,0,1-.9-1v-3.9a1,1,0,0,1,.9-1h0a6.93,6.93,0,0,0,0-13.8c-.6.1-.9-.4-.9-1v-17.9a1,1,0,0,1,.9-1h0a6.93,6.93,0,0,0,0-13.8c-.6.1-.9-.4-.9-1v-3.9a1,1,0,0,1,.9-1h3.6A1.07,1.07,0,0,1,213.7,176.54Zm8.6,26.6a.47.47,0,0,0-.5.5h0v12.9a.46.46,0,0,0,.4.5.4.4,0,0,0,.4-.2,22.35,22.35,0,0,0,5-13.1.46.46,0,0,0-.4-.5h-4.9Zm0-11.8a.47.47,0,0,0-.5.5h0v8.9a.47.47,0,0,0,.5.5h5a.47.47,0,0,0,.5-.5,44.42,44.42,0,0,0-.4-6.3,12.76,12.76,0,0,0-.7-2.8c-.1-.2-.2-.3-.4-.3Zm-.4-5.2v2.7a.47.47,0,0,0,.5.5h2.5a.44.44,0,0,0,.4-.6c0-.1,0-.2-.1-.2a11.12,11.12,0,0,0-2.6-2.7.38.38,0,0,0-.6.1c-.1,0-.1.1-.1.2Z"/><path d="M213.7,188.34a4.56,4.56,0,1,1-4.5-4.9A4.7,4.7,0,0,1,213.7,188.34Zm-7.3,0a2.76,2.76,0,1,0,5.5-.5,2.72,2.72,0,0,0-2.7-2.5,3,3,0,0,0-2.8,3Z"/><path d="M506.5,381.54a4.55,4.55,0,1,0,4.5,4.6h0A4.44,4.44,0,0,0,506.5,381.54Zm0,7.3a2.7,2.7,0,1,1,2.7-2.7,2.63,2.63,0,0,1-2.7,2.7Z"/><path d="M548.4,381.54V376a1,1,0,0,0-.6-.9l-5.1-1.7a14,14,0,0,0-10.5-7.4h0c-10.9-1.5-19,.9-24.2,7.3-3.9.1-7.9.9-10.2,2.4a4.59,4.59,0,0,0-2,3.6l-.1,2.3a.9.9,0,0,0-.9.9h0v3.6a.9.9,0,0,0,.9.9h3.6a.9.9,0,0,0,.9-.9h0a6.35,6.35,0,0,1,12.7,0,.8.8,0,0,0,.7.9h16.6a.9.9,0,0,0,.9-.9h0a6.35,6.35,0,0,1,12.7,0,.8.8,0,0,0,.7.9h3.8a.9.9,0,0,0,.9-.9v-3.6a.81.81,0,0,0-.8-1Zm-24.6-8.6a.47.47,0,0,1-.5.5H511.4a.47.47,0,0,1-.5-.5c0-.1.1-.2.2-.3a20.14,20.14,0,0,1,12.1-5,.46.46,0,0,1,.5.4h0Zm11,0c0,.3-.2.5-.5.4h-8.2a.47.47,0,0,1-.5-.5v-5a.47.47,0,0,1,.5-.5,37.7,37.7,0,0,1,5.8.4,19.73,19.73,0,0,1,2.6.7c.2.1.3.2.3.4Zm4.7.4H537c-.2,0-.5-.2-.5-.4h0v-2.5a.47.47,0,0,1,.5-.5.37.37,0,0,1,.3.1,10.3,10.3,0,0,1,2.5,2.6.38.38,0,0,1-.1.6c0,.1-.1.1-.2.1Z"/><path d="M537.5,381.54a4.55,4.55,0,1,0,4.6,4.6,4.65,4.65,0,0,0-4.6-4.6Zm0,7.3a2.7,2.7,0,1,1,2.7-2.7,2.69,2.69,0,0,1-2.7,2.7Z"/><path d="M52.9,419.54a4.56,4.56,0,1,1-4.9,4.6A4.58,4.58,0,0,1,52.9,419.54Zm0,7.3a2.76,2.76,0,1,0-.5-5.5,2.72,2.72,0,0,0-2.5,2.7,2.91,2.91,0,0,0,3,2.8Z"/><path d="M7.5,419.54V414a1,1,0,0,1,.7-.9l5.6-1.7A15,15,0,0,1,25.1,404h0c11.8-1.5,20.6,1,26.3,7.3,4.2.1,8.5.9,11.1,2.4a4.39,4.39,0,0,1,2.2,3.6l.1,2.3a1,1,0,0,1,1,.9v3.6a1,1,0,0,1-1,.9H60.9a1,1,0,0,1-1-.9h0a6.93,6.93,0,0,0-13.8,0c.1.6-.4.9-1,.9H27.2a1,1,0,0,1-1-.9h0a6.75,6.75,0,0,0-6.9-6.4,6.68,6.68,0,0,0-6.9,6.4c.1.6-.4.9-1,.9H7.5a1,1,0,0,1-1-.9v-3.6A1,1,0,0,1,7.5,419.54Zm26.6-8.6a.47.47,0,0,0,.5.5H47.5a.46.46,0,0,0,.5-.4.4.4,0,0,0-.2-.4,22.35,22.35,0,0,0-13.1-5,.47.47,0,0,0-.5.5h0Zm-11.8,0a.47.47,0,0,0,.5.5h8.9a.47.47,0,0,0,.5-.5h0v-5a.47.47,0,0,0-.5-.5,44.42,44.42,0,0,0-6.3.4,15.29,15.29,0,0,0-2.9.7c-.2.1-.3.2-.3.4Zm-5.2.4h2.7a.47.47,0,0,0,.5-.5h0v-2.5a.44.44,0,0,0-.6-.4c-.1,0-.2,0-.2.1a12.94,12.94,0,0,0-2.7,2.5.38.38,0,0,0,.1.6c0,.2.1.2.2.2Z"/><path d="M19.3,419.54a4.57,4.57,0,0,1,.9,9.1h-.9a4.56,4.56,0,1,1-.7-9.1Zm0,7.3a2.76,2.76,0,1,0,.5-5.5h-.5a2.76,2.76,0,0,0-.5,5.5Z"/><line class="cls-11" x1="106.6" y1="419.44" x2="134.7" y2="419.44"/><polygon points="146.6 419.44 129.1 412.04 132.2 419.44 129.1 426.84 146.6 419.44"/><line class="cls-11" x1="124.3" y1="412.74" x2="117.6" y2="419.44"/><polygon points="130.6 406.44 125.3 419.64 123 414.04 117.4 411.84 130.6 406.44"/><line class="cls-11" x1="295.5" y1="566.24" x2="295.5" y2="538.24"/><polygon points="295.5 526.24 288.1 543.84 295.5 540.74 302.9 543.84 295.5 526.24"/><line class="cls-11" x1="288.8" y1="548.64" x2="295.5" y2="555.24"/><polygon points="282.5 542.24 295.8 547.64 290.2 549.94 287.9 555.54 282.5 542.24"/><line class="cls-11" x1="253" y1="236.44" x2="253" y2="264.54"/><polygon points="253 276.44 260.5 258.94 253 262.04 245.6 258.94 253 276.44"/><line class="cls-11" x1="259.7" y1="254.14" x2="253" y2="247.44"/><polygon points="266 260.44 252.8 255.14 258.4 252.84 260.7 247.24 266 260.44"/><line class="cls-11" x1="442.3" y1="377.54" x2="414.3" y2="377.54"/><polygon points="402.3 377.54 419.9 384.94 416.8 377.54 419.9 370.14 402.3 377.54"/><line class="cls-11" x1="424.7" y1="384.24" x2="431.3" y2="377.54"/><polygon points="418.3 390.54 423.7 377.34 426 382.94 431.6 385.14 418.3 390.54"/><path d="M874.16,39.82H865.7l-1.49,3.45a5.52,5.52,0,0,0-.54,1.9,1.12,1.12,0,0,0,.47.88,4.14,4.14,0,0,0,2.06.49v.6h-6.88v-.6a3.68,3.68,0,0,0,1.77-.63,9.81,9.81,0,0,0,1.82-3.14l7.69-18h.56L878.77,43a8.26,8.26,0,0,0,1.66,2.85,3.42,3.42,0,0,0,2.09.73v.6H873.9v-.6a3.24,3.24,0,0,0,1.76-.43,1.12,1.12,0,0,0,.46-.91,6.65,6.65,0,0,0-.64-2.24Zm-.45-1.19L870,29.8l-3.8,8.83Z"/><path d="M893.07,46.54v.6h-9.36v-.6h.78a2.32,2.32,0,0,0,2-.79,4.86,4.86,0,0,0,.39-2.48V29.16a7.3,7.3,0,0,0-.21-2.2,1.5,1.5,0,0,0-.66-.69,3.06,3.06,0,0,0-1.48-.39h-.78v-.59h9.36v.59h-.79a2.34,2.34,0,0,0-1.95.79,4.87,4.87,0,0,0-.4,2.49V43.27a7.17,7.17,0,0,0,.21,2.19,1.41,1.41,0,0,0,.68.69,2.93,2.93,0,0,0,1.46.39Z"/><path d="M907.38,47.14l-8.44-18.39v14.6a4.47,4.47,0,0,0,.43,2.51,2.37,2.37,0,0,0,1.89.68H902v.6h-7.6v-.6h.77a2.22,2.22,0,0,0,2-.84,5,5,0,0,0,.35-2.35V29.07A5.08,5.08,0,0,0,897.2,27a1.81,1.81,0,0,0-.83-.78,4.42,4.42,0,0,0-1.94-.32v-.59h6.19l7.92,17.09,7.8-17.09h6.19v.59h-.76a2.24,2.24,0,0,0-2,.84,4.88,4.88,0,0,0-.35,2.35V43.35a4.33,4.33,0,0,0,.45,2.51,2.34,2.34,0,0,0,1.88.68h.76v.6h-9.28v-.6H914a2.2,2.2,0,0,0,2-.84,5,5,0,0,0,.35-2.35V28.75l-8.42,18.39Z"/><path d="M208.23,411.58v.6h-9.37v-.6h.78a2.32,2.32,0,0,0,2-.79,4.86,4.86,0,0,0,.39-2.48V394.2a7.17,7.17,0,0,0-.21-2.19,1.51,1.51,0,0,0-.66-.7,3,3,0,0,0-1.48-.38h-.78v-.6h9.37v.6h-.79a2.28,2.28,0,0,0-1.95.79,4.68,4.68,0,0,0-.41,2.48v14.11a7.17,7.17,0,0,0,.21,2.19,1.52,1.52,0,0,0,.68.7,3,3,0,0,0,1.47.38Z"/><path d="M214.36,400.11c1.73-2.08,3.38-3.13,4.95-3.13a3.57,3.57,0,0,1,2.08.61,4,4,0,0,1,1.38,2,9,9,0,0,1,.36,3v6.3a5.42,5.42,0,0,0,.22,1.91,1.34,1.34,0,0,0,.58.62,3.23,3.23,0,0,0,1.46.23v.58h-7.3v-.58h.3a2.42,2.42,0,0,0,1.44-.32,1.58,1.58,0,0,0,.58-.92,10.18,10.18,0,0,0,.06-1.52v-6a6.1,6.1,0,0,0-.52-2.92,1.87,1.87,0,0,0-1.77-.91,5.3,5.3,0,0,0-3.82,2.09v7.78a5.55,5.55,0,0,0,.18,1.86,1.48,1.48,0,0,0,.62.68,3.79,3.79,0,0,0,1.61.22v.58h-7.3v-.58h.32a1.73,1.73,0,0,0,1.52-.57,4.21,4.21,0,0,0,.4-2.19v-5.47a21.53,21.53,0,0,0-.13-3.24,1.35,1.35,0,0,0-.37-.79,1,1,0,0,0-.66-.21,3,3,0,0,0-1.08.24l-.25-.58,4.45-1.81h.69Z"/><path d="M230.85,392.57v4.85h3.45v1.13h-3.45v9.57a3.16,3.16,0,0,0,.41,1.93,1.27,1.27,0,0,0,1.05.5,1.88,1.88,0,0,0,1-.33,2.1,2.1,0,0,0,.77-1h.63a5.06,5.06,0,0,1-1.6,2.37,3.45,3.45,0,0,1-2.13.8,2.87,2.87,0,0,1-1.44-.41,2.42,2.42,0,0,1-1.05-1.18,6.06,6.06,0,0,1-.34-2.36v-9.92h-2.34V398a6.18,6.18,0,0,0,1.82-1.21,9.94,9.94,0,0,0,1.65-2,19.74,19.74,0,0,0,1-2.24Z"/><path d="M238.21,403a7.58,7.58,0,0,0,1.6,5.16,4.85,4.85,0,0,0,3.78,1.86,4.09,4.09,0,0,0,2.52-.79,5.91,5.91,0,0,0,1.8-2.73l.5.32a7.62,7.62,0,0,1-2,4,5.23,5.23,0,0,1-4.07,1.81,6,6,0,0,1-4.55-2.07,7.91,7.91,0,0,1-1.9-5.57,8.43,8.43,0,0,1,1.94-5.9,6.32,6.32,0,0,1,4.88-2.12,5.47,5.47,0,0,1,4.08,1.63,6,6,0,0,1,1.59,4.38Zm0-.94H245a5.92,5.92,0,0,0-.34-2,3,3,0,0,0-1.2-1.42,3,3,0,0,0-1.66-.52,3.35,3.35,0,0,0-2.4,1A4.54,4.54,0,0,0,238.21,402Z"/><path d="M254.7,397v3.32q1.85-3.32,3.8-3.32a2.08,2.08,0,0,1,1.47.54,1.69,1.69,0,0,1,.58,1.25,1.53,1.53,0,0,1-.42,1.07,1.35,1.35,0,0,1-1,.43,2.13,2.13,0,0,1-1.27-.55,2.07,2.07,0,0,0-1-.56,1,1,0,0,0-.63.32,7.74,7.74,0,0,0-1.49,2.18v7.07a4.4,4.4,0,0,0,.3,1.85,1.68,1.68,0,0,0,.74.73,3.33,3.33,0,0,0,1.53.29v.58h-7.55v-.58a3.07,3.07,0,0,0,1.67-.36,1.37,1.37,0,0,0,.57-.82,8.6,8.6,0,0,0,.08-1.56v-5.72a23.29,23.29,0,0,0-.11-3.07,1.24,1.24,0,0,0-.38-.72,1.11,1.11,0,0,0-.71-.22,3.18,3.18,0,0,0-1.12.24l-.16-.58L254,397Z"/><path d="M270.91,397v5h-.54a6.44,6.44,0,0,0-1.57-3.22,3.52,3.52,0,0,0-2.44-.85,2.68,2.68,0,0,0-1.82.59,1.74,1.74,0,0,0-.69,1.32,2.43,2.43,0,0,0,.51,1.55,5.76,5.76,0,0,0,2,1.4l2.36,1.15q3.27,1.59,3.27,4.2a4,4,0,0,1-1.53,3.25,5.27,5.27,0,0,1-3.4,1.23,11.85,11.85,0,0,1-3.1-.48,3,3,0,0,0-.87-.16.65.65,0,0,0-.58.41H262v-5.26h.53a6,6,0,0,0,1.73,3.4,4.17,4.17,0,0,0,2.85,1.14,2.57,2.57,0,0,0,1.81-.65,2.07,2.07,0,0,0,.7-1.57,2.5,2.5,0,0,0-.78-1.87,13.28,13.28,0,0,0-3.12-1.92,9.22,9.22,0,0,1-3.06-2.1,3.63,3.63,0,0,1-.72-2.32,4.07,4.07,0,0,1,1.25-3,4.39,4.39,0,0,1,3.23-1.23,7.56,7.56,0,0,1,2.11.38,5,5,0,0,0,1.09.24.65.65,0,0,0,.41-.12,1.45,1.45,0,0,0,.33-.5Z"/><path d="M276.69,403a7.62,7.62,0,0,0,1.59,5.16,4.89,4.89,0,0,0,3.79,1.86,4.09,4.09,0,0,0,2.52-.79,5.91,5.91,0,0,0,1.8-2.73l.5.32a7.7,7.7,0,0,1-2,4,5.23,5.23,0,0,1-4.07,1.81,5.94,5.94,0,0,1-4.55-2.07,7.91,7.91,0,0,1-1.9-5.57,8.43,8.43,0,0,1,1.94-5.9,6.32,6.32,0,0,1,4.88-2.12,5.43,5.43,0,0,1,4.07,1.63,6,6,0,0,1,1.6,4.38Zm0-.94h6.83a6.18,6.18,0,0,0-.34-2,3.16,3.16,0,0,0-1.2-1.42,3,3,0,0,0-1.66-.52,3.35,3.35,0,0,0-2.4,1A4.54,4.54,0,0,0,276.69,402Z"/><path d="M301.39,406.57a8,8,0,0,1-2.34,4.49,5.6,5.6,0,0,1-3.85,1.57,5.69,5.69,0,0,1-4.38-2.11,8.33,8.33,0,0,1-1.87-5.7,7.88,7.88,0,0,1,2.07-5.66,6.63,6.63,0,0,1,5-2.18,5.44,5.44,0,0,1,3.58,1.16,3.15,3.15,0,0,1,1.4,2.39,1.31,1.31,0,0,1-.39,1,1.56,1.56,0,0,1-1.11.38,1.73,1.73,0,0,1-1.43-.61,2.62,2.62,0,0,1-.36-1.29,2.12,2.12,0,0,0-.65-1.45,2.36,2.36,0,0,0-1.57-.49,3.18,3.18,0,0,0-2.59,1.2,6.33,6.33,0,0,0-1.31,4.17,8.46,8.46,0,0,0,1.3,4.66,4,4,0,0,0,3.5,2A4.24,4.24,0,0,0,299.2,409a7.23,7.23,0,0,0,1.72-2.69Z"/><path d="M307.79,392.57v4.85h3.45v1.13h-3.45v9.57a3.24,3.24,0,0,0,.41,1.93,1.28,1.28,0,0,0,1.05.5,1.88,1.88,0,0,0,1-.33,2.1,2.1,0,0,0,.77-1h.63a5.06,5.06,0,0,1-1.6,2.37,3.42,3.42,0,0,1-2.12.8,2.87,2.87,0,0,1-1.45-.41,2.42,2.42,0,0,1-1-1.18,6.06,6.06,0,0,1-.34-2.36v-9.92h-2.34V398a6.18,6.18,0,0,0,1.82-1.21,9.94,9.94,0,0,0,1.65-2,19.74,19.74,0,0,0,1-2.24Z"/><path d="M317.76,397v11.86a5.59,5.59,0,0,0,.2,1.85,1.48,1.48,0,0,0,.6.68,3.16,3.16,0,0,0,1.44.23v.58h-7.17v-.58a3.31,3.31,0,0,0,1.45-.21,1.4,1.4,0,0,0,.59-.69,5.13,5.13,0,0,0,.22-1.86v-5.68a19.44,19.44,0,0,0-.15-3.11,1.21,1.21,0,0,0-.35-.72,1,1,0,0,0-.66-.2,3.27,3.27,0,0,0-1.1.24l-.22-.58,4.44-1.81Zm-1.34-7.71a1.56,1.56,0,0,1,1.16.47,1.59,1.59,0,0,1,.47,1.15,1.62,1.62,0,0,1-.47,1.16,1.54,1.54,0,0,1-1.16.49,1.64,1.64,0,0,1-1.16-2.8A1.55,1.55,0,0,1,316.42,389.27Z"/><path d="M329.06,397a6.53,6.53,0,0,1,5.38,2.55,7.82,7.82,0,0,1,1.72,5,9.33,9.33,0,0,1-1,4,6.75,6.75,0,0,1-6.33,4.09,6.26,6.26,0,0,1-5.3-2.66,8.21,8.21,0,0,1-1.66-5,8.81,8.81,0,0,1,1-4,6.85,6.85,0,0,1,2.65-3A6.76,6.76,0,0,1,329.06,397Zm-.5,1a3.37,3.37,0,0,0-1.72.51,3.55,3.55,0,0,0-1.39,1.78,8.47,8.47,0,0,0-.53,3.27,11.34,11.34,0,0,0,1.28,5.56,3.81,3.81,0,0,0,3.37,2.34,3.14,3.14,0,0,0,2.58-1.29c.68-.86,1-2.34,1-4.43a10.09,10.09,0,0,0-1.7-6.19A3.48,3.48,0,0,0,328.56,398Z"/><path d="M342.64,400.11C344.37,398,346,397,347.59,397a3.59,3.59,0,0,1,2.08.61,4,4,0,0,1,1.38,2,9,9,0,0,1,.36,3v6.3a5.42,5.42,0,0,0,.22,1.91,1.37,1.37,0,0,0,.57.62,3.26,3.26,0,0,0,1.46.23v.58h-7.3v-.58h.31a2.42,2.42,0,0,0,1.44-.32,1.53,1.53,0,0,0,.57-.92,8.38,8.38,0,0,0,.07-1.52v-6a6.08,6.08,0,0,0-.53-2.92,1.85,1.85,0,0,0-1.76-.91,5.3,5.3,0,0,0-3.82,2.09v7.78a5.55,5.55,0,0,0,.18,1.86,1.48,1.48,0,0,0,.62.68,3.74,3.74,0,0,0,1.6.22v.58h-7.3v-.58h.33a1.74,1.74,0,0,0,1.52-.57,4.23,4.23,0,0,0,.39-2.19v-5.47a23.85,23.85,0,0,0-.12-3.24,1.35,1.35,0,0,0-.37-.79,1,1,0,0,0-.67-.21,3.13,3.13,0,0,0-1.08.24l-.24-.58L342,397h.69Z"/><line class="cls-12" x1="822" y1="3.9" x2="822" y2="6.9"/><line class="cls-13" x1="822" y1="12.9" x2="822" y2="694.08"/><line class="cls-12" x1="822" y1="697.08" x2="822" y2="700.08"/><line class="cls-12" x1="1296.82" y1="4.3" x2="1293.82" y2="4.3"/><line class="cls-14" x1="1287.89" y1="4.3" x2="827.97" y2="4.3"/><line class="cls-12" x1="825" y1="4.3" x2="822" y2="4.3"/><path class="cls-12" d="M492.9,226.53A379.28,379.28,0,0,1,594,165c36.39-14.89,66.28-20.33,88.89-24.33A528.06,528.06,0,0,1,793.81,133"/><path class="cls-15" d="M503.49,237.34a15,15,0,1,1,1.43-21.22A15,15,0,0,1,503.49,237.34Z"/><path d="M504.8,238.85a17,17,0,1,0-24-1.62,17.05,17.05,0,0,0,24,1.62ZM485,216.2a13,13,0,1,1-1.24,18.4A13.05,13.05,0,0,1,485,216.2Z"/><polygon points="822 134.76 781.36 148.78 791.69 133.07 783.17 116.31 822 134.76"/><path d="M492.87,114.92l-.17.6h-9l.23-.6a5.59,5.59,0,0,0,1.79-.22,2.31,2.31,0,0,0,1-.76,9.84,9.84,0,0,0,1.09-2.71l3.8-13.18a9.39,9.39,0,0,0,.49-2.48,1.19,1.19,0,0,0-.21-.71,1.29,1.29,0,0,0-.64-.44,6,6,0,0,0-1.67-.15l.2-.6h8.44l-.18.6a3.48,3.48,0,0,0-1.53.22,2.45,2.45,0,0,0-1.1.92,12.83,12.83,0,0,0-1,2.64l-3.78,13.18a11.72,11.72,0,0,0-.52,2.32,1.19,1.19,0,0,0,.2.69,1.26,1.26,0,0,0,.65.43A8,8,0,0,0,492.87,114.92Z"/><path d="M503,100.94l-2.14,7.33a34.09,34.09,0,0,1,4.61-5.92,4.79,4.79,0,0,1,3.09-1.41,1.78,1.78,0,0,1,1.33.53,1.86,1.86,0,0,1,.52,1.38,9.85,9.85,0,0,1-.47,2.58l-2,6.79a7.78,7.78,0,0,0-.34,1.43.55.55,0,0,0,.13.38.36.36,0,0,0,.27.15.82.82,0,0,0,.47-.21,10.91,10.91,0,0,0,1.87-2.06l.5.31a12.26,12.26,0,0,1-2.84,3.06,3.09,3.09,0,0,1-1.67.63,1.3,1.3,0,0,1-1-.37,1.34,1.34,0,0,1-.35-1,11.05,11.05,0,0,1,.55-2.66l1.87-6.48a7.38,7.38,0,0,0,.35-1.88.71.71,0,0,0-.21-.53.73.73,0,0,0-.51-.2,2.16,2.16,0,0,0-1.08.39,9.57,9.57,0,0,0-2.48,2.39,33.89,33.89,0,0,0-2.73,4.26,16.15,16.15,0,0,0-1.25,3l-.81,2.66h-2.42l2.94-10.09a13.2,13.2,0,0,0,.51-2.19.82.82,0,0,0-.28-.62,1,1,0,0,0-.7-.27c-.13,0-.36,0-.68.07l-.61.1-.1-.58Z"/><path d="M520.8,96.94l-1.26,4.38h2.53l-.27,1h-2.52l-2.77,9.51a9.53,9.53,0,0,0-.45,2,.6.6,0,0,0,.13.42.41.41,0,0,0,.3.14,1.92,1.92,0,0,0,1.07-.56,20.47,20.47,0,0,0,1.72-2l.53.4a11.25,11.25,0,0,1-2.8,3,3.22,3.22,0,0,1-1.82.62,1.58,1.58,0,0,1-1.16-.45,1.51,1.51,0,0,1-.45-1.13,10.83,10.83,0,0,1,.51-2.66l2.7-9.33h-2.44l.16-.63a7.83,7.83,0,0,0,3-1.44,13.38,13.38,0,0,0,2.63-3.33Z"/><path d="M525.33,109.44a9.51,9.51,0,0,0-.12,1.34,3.29,3.29,0,0,0,1,2.44,3.37,3.37,0,0,0,2.46,1,5.36,5.36,0,0,0,2.23-.48,17.23,17.23,0,0,0,3.19-2.1l.34.47c-2.55,2.52-5,3.79-7.29,3.79a4.26,4.26,0,0,1-3.54-1.49,5.06,5.06,0,0,1-1.2-3.27,9.62,9.62,0,0,1,1.49-4.91,11.2,11.2,0,0,1,3.72-3.91,8.6,8.6,0,0,1,4.61-1.39,3.88,3.88,0,0,1,2.53.69,2.08,2.08,0,0,1,.82,1.64,3.89,3.89,0,0,1-1.06,2.57,9.79,9.79,0,0,1-4.13,2.57A22.48,22.48,0,0,1,525.33,109.44Zm.11-.79a13.54,13.54,0,0,0,3.88-.93,7.83,7.83,0,0,0,3-2.12,3.77,3.77,0,0,0,1-2.34,1.5,1.5,0,0,0-.43-1.1,1.67,1.67,0,0,0-1.22-.42,5.32,5.32,0,0,0-3.49,1.75A10.55,10.55,0,0,0,525.44,108.65Z"/><path d="M537.76,101.84l5.56-.9L541,108.77a26.16,26.16,0,0,1,5.13-6.74,3.75,3.75,0,0,1,2.12-1.09,1.1,1.1,0,0,1,.84.31,1.23,1.23,0,0,1,.31.91,4.1,4.1,0,0,1-.55,2,1.22,1.22,0,0,1-1.11.73.89.89,0,0,1-.64-.25,1.12,1.12,0,0,1-.33-.74.66.66,0,0,0-.14-.4.42.42,0,0,0-.31-.13,1.08,1.08,0,0,0-.52.13,5.85,5.85,0,0,0-1.27,1.26,34.39,34.39,0,0,0-2.9,4.09,12.15,12.15,0,0,0-1.16,2.4c-.45,1.23-.71,2-.77,2.21l-.52,2h-2.46l3-10a10.24,10.24,0,0,0,.51-2.48.6.6,0,0,0-.24-.48,1.33,1.33,0,0,0-.85-.26,9,9,0,0,0-1.24.15Z"/><path d="M560.85,100.94l-1,4.94h-.6a5.08,5.08,0,0,0-.91-3.14,2.65,2.65,0,0,0-2.08-1,2.21,2.21,0,0,0-1.59.55,1.73,1.73,0,0,0-.59,1.32,2.24,2.24,0,0,0,.24,1,6.3,6.3,0,0,0,1,1.36,19.59,19.59,0,0,1,2.71,3.44,4.86,4.86,0,0,1,.61,2.2,4,4,0,0,1-1.39,3,5,5,0,0,1-3.53,1.3,8.14,8.14,0,0,1-2.67-.55,2.63,2.63,0,0,0-.82-.2,1.18,1.18,0,0,0-1.1.75h-.59l1-5.22h.6a5.47,5.47,0,0,0,1,3.46,3.2,3.2,0,0,0,2.51,1,2.7,2.7,0,0,0,2-.68,2.27,2.27,0,0,0,.71-1.68,2.7,2.7,0,0,0-.26-1.2,13.86,13.86,0,0,0-1.89-2.67,14.18,14.18,0,0,1-1.85-2.56,3.83,3.83,0,0,1-.41-1.71,3.52,3.52,0,0,1,1.13-2.64,4.09,4.09,0,0,1,2.93-1.08,4.48,4.48,0,0,1,.93.08,9.87,9.87,0,0,1,1.06.36,4,4,0,0,0,1.1.31,1.36,1.36,0,0,0,1.16-.75Z"/><path d="M565.66,109.44a9.51,9.51,0,0,0-.12,1.34,3.29,3.29,0,0,0,1,2.44,3.38,3.38,0,0,0,2.46,1,5.44,5.44,0,0,0,2.24-.48,17.58,17.58,0,0,0,3.18-2.1l.34.47c-2.55,2.52-5,3.79-7.29,3.79a4.26,4.26,0,0,1-3.54-1.49,5.05,5.05,0,0,1-1.19-3.27,9.6,9.6,0,0,1,1.48-4.91,11.2,11.2,0,0,1,3.72-3.91,8.6,8.6,0,0,1,4.61-1.39,3.88,3.88,0,0,1,2.53.69,2.08,2.08,0,0,1,.82,1.64,3.89,3.89,0,0,1-1.06,2.57,9.79,9.79,0,0,1-4.13,2.57A22.48,22.48,0,0,1,565.66,109.44Zm.11-.79a13.54,13.54,0,0,0,3.88-.93,8,8,0,0,0,3-2.12,3.81,3.81,0,0,0,1-2.34,1.5,1.5,0,0,0-.43-1.1,1.67,1.67,0,0,0-1.22-.42,5.32,5.32,0,0,0-3.49,1.75A10.55,10.55,0,0,0,565.77,108.65Z"/><path d="M589.12,112a12.3,12.3,0,0,1-3.39,2.95,7.35,7.35,0,0,1-3.61,1,4.79,4.79,0,0,1-3.56-1.29,4.69,4.69,0,0,1-1.29-3.47,9.59,9.59,0,0,1,1.38-4.85,11.18,11.18,0,0,1,3.71-3.87,8.39,8.39,0,0,1,4.57-1.49,4,4,0,0,1,2.62.73,2.27,2.27,0,0,1,.87,1.8,2.5,2.5,0,0,1-.61,1.7,1.37,1.37,0,0,1-1.11.55,1.16,1.16,0,0,1-.83-.32,1.07,1.07,0,0,1-.33-.81,1.31,1.31,0,0,1,.12-.56,2.35,2.35,0,0,1,.5-.62,3.05,3.05,0,0,0,.46-.52.81.81,0,0,0,.08-.34.67.67,0,0,0-.31-.57,2.34,2.34,0,0,0-1.32-.32,5.31,5.31,0,0,0-3.12,1.11,9,9,0,0,0-2.65,3.16,10.5,10.5,0,0,0-1.32,5,3.56,3.56,0,0,0,.94,2.61,3.38,3.38,0,0,0,2.54,1,5.4,5.4,0,0,0,2.46-.62,10.83,10.83,0,0,0,2.73-2.25Z"/><path d="M599.59,96.94l-1.26,4.38h2.53l-.27,1h-2.51l-2.78,9.51a9.53,9.53,0,0,0-.45,2,.66.66,0,0,0,.13.42.43.43,0,0,0,.31.14,1.91,1.91,0,0,0,1.06-.56,21.5,21.5,0,0,0,1.73-2l.53.4a11.42,11.42,0,0,1-2.81,3,3.19,3.19,0,0,1-1.82.62,1.58,1.58,0,0,1-1.16-.45,1.51,1.51,0,0,1-.45-1.13,10.49,10.49,0,0,1,.52-2.66l2.69-9.33h-2.43l.16-.63a7.78,7.78,0,0,0,2.94-1.44,13.15,13.15,0,0,0,2.63-3.33Z"/><path d="M607.78,100.94l-3.2,11.29a8.88,8.88,0,0,0-.32,1.37.57.57,0,0,0,.16.42.46.46,0,0,0,.36.16,1,1,0,0,0,.58-.26,9.57,9.57,0,0,0,1.85-2.06l.57.37a11.47,11.47,0,0,1-2.58,2.82,3.47,3.47,0,0,1-2.1.86,1.53,1.53,0,0,1-1.08-.4,1.29,1.29,0,0,1-.42-1,8.23,8.23,0,0,1,.41-2l2.09-7.22a11.23,11.23,0,0,0,.52-2.22.76.76,0,0,0-.25-.58,1,1,0,0,0-.69-.23,11.84,11.84,0,0,0-1.46.18v-.63Zm-.21-6.4a1.61,1.61,0,0,1,0,3.22,1.59,1.59,0,0,1-1.14-.47,1.63,1.63,0,0,1,0-2.28A1.58,1.58,0,0,1,607.57,94.54Z"/><path d="M624.62,106a9.93,9.93,0,0,1-1.29,4.79,9.68,9.68,0,0,1-3.57,3.75,8.58,8.58,0,0,1-4.44,1.39,4.84,4.84,0,0,1-3.6-1.41,5,5,0,0,1-1.4-3.65,9.62,9.62,0,0,1,1.36-4.76,10.4,10.4,0,0,1,3.65-3.77,8.49,8.49,0,0,1,4.4-1.38,4.69,4.69,0,0,1,3.51,1.4A5,5,0,0,1,624.62,106Zm-2.68-1.11a3.27,3.27,0,0,0-.73-2.3,2.47,2.47,0,0,0-1.9-.8c-1.58,0-3,1.14-4.35,3.4a13.22,13.22,0,0,0-2,6.74,3.31,3.31,0,0,0,.78,2.36,2.55,2.55,0,0,0,2,.83c1.51,0,2.93-1.12,4.26-3.38A13.31,13.31,0,0,0,621.94,104.87Z"/><path d="M633.14,100.94,631,108.27a34.09,34.09,0,0,1,4.61-5.92,4.79,4.79,0,0,1,3.09-1.41,1.78,1.78,0,0,1,1.33.53,1.86,1.86,0,0,1,.52,1.38,9.85,9.85,0,0,1-.47,2.58l-2,6.79a7.78,7.78,0,0,0-.34,1.43.55.55,0,0,0,.13.38.36.36,0,0,0,.27.15.82.82,0,0,0,.47-.21,10.91,10.91,0,0,0,1.87-2.06l.5.31a12.26,12.26,0,0,1-2.84,3.06,3.09,3.09,0,0,1-1.67.63,1.26,1.26,0,0,1-1-.37,1.31,1.31,0,0,1-.36-1,11.05,11.05,0,0,1,.55-2.66l1.87-6.48a7.38,7.38,0,0,0,.35-1.88.71.71,0,0,0-.21-.53.73.73,0,0,0-.51-.2,2.16,2.16,0,0,0-1.08.39,9.57,9.57,0,0,0-2.48,2.39,33.89,33.89,0,0,0-2.73,4.26,16.15,16.15,0,0,0-1.25,3l-.81,2.66h-2.42l2.94-10.09a13.2,13.2,0,0,0,.51-2.19.82.82,0,0,0-.28-.62,1,1,0,0,0-.7-.27c-.13,0-.36,0-.68.07l-.61.1-.1-.58Z"/><path d="M530.78,155.62l1.8-8.11h.55c-.07.79-.11,1.44-.11,2a4.83,4.83,0,0,0,1.41,3.6,5,5,0,0,0,3.68,1.38,4,4,0,0,0,3.21-1.29,4.52,4.52,0,0,0,1.09-3,4,4,0,0,0-.5-2,30.24,30.24,0,0,0-4-4.71,13.53,13.53,0,0,1-2-2.4,5.5,5.5,0,0,1-.74-2.74,5.2,5.2,0,0,1,1.71-3.91,6.08,6.08,0,0,1,4.38-1.63,7.87,7.87,0,0,1,1.71.18,11.65,11.65,0,0,1,1.82.64l1,.4a2,2,0,0,0,.5,0,1.38,1.38,0,0,0,.81-.24,3.37,3.37,0,0,0,.79-1h.61L546.76,140h-.55c0-.64.07-1.16.07-1.56a4.22,4.22,0,0,0-1.29-3.19,4.68,4.68,0,0,0-3.4-1.24,3.79,3.79,0,0,0-2.72,1,3,3,0,0,0-1,2.27,3.84,3.84,0,0,0,.67,2.15,23,23,0,0,0,3.08,3.34,17.46,17.46,0,0,1,3.11,3.61,5.56,5.56,0,0,1,.71,2.76,6.43,6.43,0,0,1-.88,3.22,5.91,5.91,0,0,1-2.52,2.4,7.64,7.64,0,0,1-3.59.86,8.51,8.51,0,0,1-1.8-.18,21.31,21.31,0,0,1-2.68-.87,3.08,3.08,0,0,0-1-.24c-.63,0-1.12.43-1.48,1.29Z"/><path d="M555.63,136.54l-1.26,4.38h2.53l-.28,1h-2.51l-2.77,9.51a9.53,9.53,0,0,0-.45,2,.6.6,0,0,0,.13.42.39.39,0,0,0,.3.14,1.92,1.92,0,0,0,1.07-.56,22.08,22.08,0,0,0,1.72-2l.53.4a11.41,11.41,0,0,1-2.8,3,3.22,3.22,0,0,1-1.82.62,1.56,1.56,0,0,1-1.16-.45,1.51,1.51,0,0,1-.45-1.13,10.83,10.83,0,0,1,.51-2.66l2.69-9.33h-2.43l.16-.63a7.9,7.9,0,0,0,2.95-1.44,13.61,13.61,0,0,0,2.63-3.33Z"/><path d="M571.71,140.54l-3.15,10.92-.35,1.47a1.82,1.82,0,0,0-.05.35.67.67,0,0,0,.16.45.43.43,0,0,0,.33.15,1,1,0,0,0,.54-.26,9.48,9.48,0,0,0,1.68-1.93l.55.38a10.47,10.47,0,0,1-2.29,2.56,3.79,3.79,0,0,1-2.18.88,1.42,1.42,0,0,1-1-.35,1.37,1.37,0,0,1-.34-1,8.58,8.58,0,0,1,.35-2.08l.34-1.2a16,16,0,0,1-3.88,3.85,4.79,4.79,0,0,1-2.5.79,2.61,2.61,0,0,1-2-1,3.92,3.92,0,0,1-.85-2.68,11.46,11.46,0,0,1,1.53-5.41,13.4,13.4,0,0,1,3.91-4.55,6,6,0,0,1,3.5-1.35,2.56,2.56,0,0,1,1.63.51,3.21,3.21,0,0,1,1,1.71l.58-1.84Zm-5.74.83a3.53,3.53,0,0,0-2.19,1,11.82,11.82,0,0,0-2.93,4.06,11.59,11.59,0,0,0-1.28,4.87,2.58,2.58,0,0,0,.55,1.73,1.66,1.66,0,0,0,1.26.64q1.75,0,3.82-2.6A11.26,11.26,0,0,0,568,144a3,3,0,0,0-.53-2A1.82,1.82,0,0,0,566,141.37Z"/><path d="M581.29,136.54,580,140.92h2.53l-.28,1h-2.51L577,151.45a9.53,9.53,0,0,0-.45,2,.6.6,0,0,0,.13.42.39.39,0,0,0,.3.14,2,2,0,0,0,1.07-.56,22.08,22.08,0,0,0,1.72-2l.53.4a11.41,11.41,0,0,1-2.8,3,3.22,3.22,0,0,1-1.82.62,1.56,1.56,0,0,1-1.16-.45,1.51,1.51,0,0,1-.45-1.13,10.83,10.83,0,0,1,.51-2.66l2.69-9.33h-2.43l.16-.63a7.9,7.9,0,0,0,3-1.44,13.39,13.39,0,0,0,2.62-3.33Z"/><path d="M585.82,149a11,11,0,0,0-.11,1.34,3.32,3.32,0,0,0,1,2.44,3.39,3.39,0,0,0,2.47,1,5.39,5.39,0,0,0,2.23-.48,17.24,17.24,0,0,0,3.18-2.1l.34.47c-2.54,2.52-5,3.79-7.28,3.79a4.29,4.29,0,0,1-3.55-1.49,5.11,5.11,0,0,1-1.19-3.27,9.7,9.7,0,0,1,1.48-4.91,11.14,11.14,0,0,1,3.73-3.91,8.59,8.59,0,0,1,4.6-1.39,3.86,3.86,0,0,1,2.53.69,2.08,2.08,0,0,1,.82,1.64,3.89,3.89,0,0,1-1.06,2.57A9.75,9.75,0,0,1,590.9,148,22.71,22.71,0,0,1,585.82,149Zm.11-.79a13.62,13.62,0,0,0,3.89-.93,7.83,7.83,0,0,0,3-2.12,3.81,3.81,0,0,0,1-2.34,1.46,1.46,0,0,0-.43-1.1,1.65,1.65,0,0,0-1.21-.42,5.3,5.3,0,0,0-3.49,1.75A10.55,10.55,0,0,0,585.93,148.25Z"/><path d="M957.45,88.85l.5,7.43h-.5a9.43,9.43,0,0,0-2.85-4.8A7,7,0,0,0,950.15,90a6.9,6.9,0,0,0-6.69,4.63,15.68,15.68,0,0,0-1,6,12.81,12.81,0,0,0,.95,5.14,7.09,7.09,0,0,0,2.86,3.33,8.17,8.17,0,0,0,4.36,1.16,7.49,7.49,0,0,0,3.75-.91,12.25,12.25,0,0,0,3.58-3.61l.5.32a11.46,11.46,0,0,1-3.84,4.27,9.7,9.7,0,0,1-5.2,1.35,9.84,9.84,0,0,1-8.41-4,11.51,11.51,0,0,1-2.22-7,12.48,12.48,0,0,1,1.46-6,10.61,10.61,0,0,1,4-4.25,10.92,10.92,0,0,1,5.61-1.51A10.37,10.37,0,0,1,954.57,90a2.5,2.5,0,0,0,1,.36,1,1,0,0,0,.76-.31,2.51,2.51,0,0,0,.6-1.21Z"/><path d="M967.84,96a6.57,6.57,0,0,1,5.39,2.54,7.82,7.82,0,0,1,1.72,5,9.44,9.44,0,0,1-1,4,6.75,6.75,0,0,1-6.33,4.09,6.24,6.24,0,0,1-5.3-2.65,8.23,8.23,0,0,1-1.66-5,8.93,8.93,0,0,1,1-4A6.73,6.73,0,0,1,967.84,96Zm-.5,1a3.3,3.3,0,0,0-1.71.5,3.61,3.61,0,0,0-1.4,1.78,8.67,8.67,0,0,0-.53,3.27,11.42,11.42,0,0,0,1.28,5.56,3.82,3.82,0,0,0,3.38,2.34,3.16,3.16,0,0,0,2.58-1.29c.67-.86,1-2.34,1-4.43a10.11,10.11,0,0,0-1.69-6.19A3.47,3.47,0,0,0,967.34,97.06Z"/><path d="M981.43,99.13Q984,96,986.37,96a3.57,3.57,0,0,1,2.08.6,4.15,4.15,0,0,1,1.39,2,9.48,9.48,0,0,1,.35,3v6.3a5.29,5.29,0,0,0,.23,1.9,1.34,1.34,0,0,0,.57.63,3.26,3.26,0,0,0,1.46.22v.58h-7.3v-.58h.31a2.48,2.48,0,0,0,1.44-.31,1.69,1.69,0,0,0,.57-.93,10,10,0,0,0,.06-1.51v-6A6.15,6.15,0,0,0,987,98.9a1.87,1.87,0,0,0-1.76-.91,5.29,5.29,0,0,0-3.82,2.1v7.78a5.88,5.88,0,0,0,.17,1.85,1.55,1.55,0,0,0,.62.69,4,4,0,0,0,1.61.21v.58h-7.3v-.58h.32a1.73,1.73,0,0,0,1.52-.57,4.09,4.09,0,0,0,.4-2.18v-5.48a24.06,24.06,0,0,0-.12-3.24,1.42,1.42,0,0,0-.37-.79,1,1,0,0,0-.67-.21,3.13,3.13,0,0,0-1.08.24l-.24-.58,4.44-1.8h.7Z"/><path d="M999.39,97.6v9.7a4.72,4.72,0,0,0,.45,2.61,2,2,0,0,0,1.6.71h1.34v.58H994v-.58h.66a2.18,2.18,0,0,0,1.18-.32,1.63,1.63,0,0,0,.73-.87,7.06,7.06,0,0,0,.2-2.13V97.6h-2.86V96.44h2.86v-1a8.88,8.88,0,0,1,.71-3.74,5.9,5.9,0,0,1,2.17-2.48,6,6,0,0,1,3.28-.94,5,5,0,0,1,3.11,1.1,2,2,0,0,1,.93,1.63,1.33,1.33,0,0,1-.41.91,1.27,1.27,0,0,1-.91.42,1.53,1.53,0,0,1-.78-.26,4.38,4.38,0,0,1-1-1.15,4,4,0,0,0-1.09-1.18,2,2,0,0,0-1.11-.31,2,2,0,0,0-1.26.4,2.22,2.22,0,0,0-.74,1.22,22.93,22.93,0,0,0-.23,4.28v1.06h3.81V97.6Z"/><path d="M1009.69,88.29v19.58a5.44,5.44,0,0,0,.2,1.83,1.44,1.44,0,0,0,.62.69,3.53,3.53,0,0,0,1.57.23v.58h-7.24v-.58a3.14,3.14,0,0,0,1.39-.21,1.44,1.44,0,0,0,.58-.69,5.44,5.44,0,0,0,.2-1.85V94.46a22.61,22.61,0,0,0-.11-3.07,1.29,1.29,0,0,0-.36-.78,1,1,0,0,0-.64-.21,3,3,0,0,0-1.06.26l-.27-.57,4.39-1.8Z"/><path d="M1018.88,96v11.86a5.25,5.25,0,0,0,.2,1.84,1.39,1.39,0,0,0,.59.69,3.27,3.27,0,0,0,1.45.22v.58h-7.18v-.58a3.31,3.31,0,0,0,1.45-.21,1.4,1.4,0,0,0,.59-.69,5.06,5.06,0,0,0,.22-1.85v-5.69a19.44,19.44,0,0,0-.15-3.11,1.28,1.28,0,0,0-.35-.72,1,1,0,0,0-.66-.2,3.27,3.27,0,0,0-1.1.24l-.22-.58,4.45-1.8Zm-1.34-7.72a1.56,1.56,0,0,1,1.15.48,1.55,1.55,0,0,1,.48,1.15,1.59,1.59,0,0,1-.48,1.16,1.56,1.56,0,0,1-1.15.48,1.59,1.59,0,0,1-1.16-.48,1.62,1.62,0,0,1,0-2.31A1.59,1.59,0,0,1,1017.54,88.29Z"/><path d="M1035.49,105.6a8,8,0,0,1-2.34,4.48,5.6,5.6,0,0,1-3.85,1.57,5.66,5.66,0,0,1-4.38-2.11,8.26,8.26,0,0,1-1.87-5.7,7.88,7.88,0,0,1,2.07-5.66,6.62,6.62,0,0,1,5-2.17,5.46,5.46,0,0,1,3.58,1.15,3.21,3.21,0,0,1,1.4,2.39,1.28,1.28,0,0,1-.4,1,1.49,1.49,0,0,1-1.1.38,1.7,1.7,0,0,1-1.43-.61,2.44,2.44,0,0,1-.37-1.29,2.1,2.1,0,0,0-.65-1.45,2.35,2.35,0,0,0-1.56-.48,3.22,3.22,0,0,0-2.6,1.19,6.32,6.32,0,0,0-1.3,4.17,8.41,8.41,0,0,0,1.3,4.67,4,4,0,0,0,3.5,2,4.26,4.26,0,0,0,2.84-1.08,7.27,7.27,0,0,0,1.72-2.69Z"/><path d="M1041.88,91.59v4.85h3.45v1.13h-3.45v9.57a3.28,3.28,0,0,0,.41,1.94,1.33,1.33,0,0,0,1.06.5,1.82,1.82,0,0,0,1-.33,2.13,2.13,0,0,0,.77-1h.63a5,5,0,0,1-1.59,2.38,3.46,3.46,0,0,1-2.13.79,2.8,2.8,0,0,1-1.45-.41,2.49,2.49,0,0,1-1-1.17,6.29,6.29,0,0,1-.34-2.36V97.57h-2.33V97a6.3,6.3,0,0,0,1.81-1.2,9.14,9.14,0,0,0,1.65-2,17.38,17.38,0,0,0,1-2.24Z"/><path d="M953.83,150.8l-8.44-18.38V147a4.56,4.56,0,0,0,.43,2.51,2.41,2.41,0,0,0,1.89.68h.77v.59h-7.6v-.59h.77a2.22,2.22,0,0,0,2-.84A5,5,0,0,0,944,147V132.74a5,5,0,0,0-.32-2.09,1.78,1.78,0,0,0-.83-.79,4.44,4.44,0,0,0-1.94-.31V129h6.19l7.92,17.1,7.8-17.1H969v.6h-.76a2.24,2.24,0,0,0-2,.84,4.85,4.85,0,0,0-.35,2.35V147a4.33,4.33,0,0,0,.45,2.51,2.37,2.37,0,0,0,1.88.68H969v.59H959.7v-.59h.77a2.2,2.2,0,0,0,2-.84,5,5,0,0,0,.35-2.35v-14.6l-8.42,18.38Z"/><path d="M977.92,135.61a6.54,6.54,0,0,1,5.38,2.54,7.83,7.83,0,0,1,1.73,5,9.44,9.44,0,0,1-.95,4,6.75,6.75,0,0,1-6.34,4.09,6.25,6.25,0,0,1-5.3-2.65,8.3,8.3,0,0,1-1.66-5,8.94,8.94,0,0,1,1-4,6.73,6.73,0,0,1,6.13-3.92Zm-.5,1a3.3,3.3,0,0,0-1.71.5,3.61,3.61,0,0,0-1.4,1.78,8.67,8.67,0,0,0-.53,3.27,11.42,11.42,0,0,0,1.28,5.56,3.82,3.82,0,0,0,3.38,2.34,3.16,3.16,0,0,0,2.58-1.29c.67-.86,1-2.34,1-4.43a10.11,10.11,0,0,0-1.69-6.19A3.49,3.49,0,0,0,977.42,136.66Z"/><path d="M997.63,149.14a7.15,7.15,0,0,1-2.11,1.62,5.09,5.09,0,0,1-2.23.49,5.5,5.5,0,0,1-4.22-2,7.52,7.52,0,0,1-1.8-5.19,9.33,9.33,0,0,1,2-5.81,6.16,6.16,0,0,1,5.14-2.64,4.45,4.45,0,0,1,3.22,1.24v-2.72a22.43,22.43,0,0,0-.12-3.11,1.35,1.35,0,0,0-.38-.79,1,1,0,0,0-.65-.21,3.49,3.49,0,0,0-1.11.26l-.21-.57,4.4-1.8h.73V145a23,23,0,0,0,.12,3.17,1.46,1.46,0,0,0,.38.8,1,1,0,0,0,.63.22,3.58,3.58,0,0,0,1.16-.27l.17.56-4.38,1.82h-.74Zm0-1.12v-7.61a5.28,5.28,0,0,0-.58-2,3.37,3.37,0,0,0-1.28-1.36,3.07,3.07,0,0,0-1.56-.46,3.33,3.33,0,0,0-2.53,1.27,7.28,7.28,0,0,0-1.46,4.9,7.73,7.73,0,0,0,1.41,5,4.09,4.09,0,0,0,3.16,1.73A4,4,0,0,0,997.63,148Z"/><path d="M1016.64,136v9a22.6,22.6,0,0,0,.12,3.13,1.4,1.4,0,0,0,.39.8.92.92,0,0,0,.62.22,2.93,2.93,0,0,0,1.13-.27l.22.56-4.41,1.82H1014v-3.12a13.14,13.14,0,0,1-2.9,2.59,4.35,4.35,0,0,1-2.11.53,3.35,3.35,0,0,1-2.15-.71,3.67,3.67,0,0,1-1.26-1.85,11,11,0,0,1-.36-3.19v-6.59a3.27,3.27,0,0,0-.22-1.45,1.55,1.55,0,0,0-.67-.62,4.07,4.07,0,0,0-1.61-.2V136h5.18v9.88a3.73,3.73,0,0,0,.71,2.71,2.51,2.51,0,0,0,1.74.64,3.62,3.62,0,0,0,1.57-.43,8.65,8.65,0,0,0,2.08-1.66v-8.37a2.37,2.37,0,0,0-.46-1.7,3,3,0,0,0-1.9-.47V136Z"/><path d="M1025.28,127.89v19.58a5.44,5.44,0,0,0,.2,1.83,1.39,1.39,0,0,0,.62.69,3.51,3.51,0,0,0,1.56.23v.58h-7.23v-.58a3.06,3.06,0,0,0,1.38-.21,1.39,1.39,0,0,0,.58-.69,5.37,5.37,0,0,0,.21-1.85V134.06a22.61,22.61,0,0,0-.11-3.07,1.35,1.35,0,0,0-.36-.78,1,1,0,0,0-.64-.21,3,3,0,0,0-1.06.26l-.28-.57,4.4-1.8Z"/><path d="M1031.85,141.6a7.58,7.58,0,0,0,1.6,5.16,4.89,4.89,0,0,0,3.79,1.87,4.14,4.14,0,0,0,2.52-.8,5.87,5.87,0,0,0,1.79-2.73l.5.32a7.68,7.68,0,0,1-2,4,5.26,5.26,0,0,1-4.08,1.81,6,6,0,0,1-4.55-2.07,7.92,7.92,0,0,1-1.89-5.56,8.39,8.39,0,0,1,1.94-5.91,6.33,6.33,0,0,1,4.87-2.12,5.46,5.46,0,0,1,4.08,1.64,6,6,0,0,1,1.59,4.37Zm0-.93h6.84a6.56,6.56,0,0,0-.34-2,3.27,3.27,0,0,0-1.2-1.42,3.05,3.05,0,0,0-1.67-.51,3.29,3.29,0,0,0-2.39,1A4.47,4.47,0,0,0,1031.85,140.67Z"/><path d="M1114.4,338.52v6.36a4.44,4.44,0,0,0,.45,2.56,2.31,2.31,0,0,0,1.86.71h.84v.6h-9.37v-.6h.82a2.21,2.21,0,0,0,2-.9,5.39,5.39,0,0,0,.32-2.37V330.77a4.47,4.47,0,0,0-.44-2.56,2.33,2.33,0,0,0-1.87-.71h-.82v-.6h8a14.31,14.31,0,0,1,4.63.6,6.49,6.49,0,0,1,2.85,2,5.27,5.27,0,0,1,1.16,3.4,5.7,5.7,0,0,1-1.77,4.35,6.92,6.92,0,0,1-5,1.68,15.11,15.11,0,0,1-1.71-.11C1115.76,338.78,1115.1,338.67,1114.4,338.52Zm0-.92c.57.11,1.08.19,1.52.24a8.28,8.28,0,0,0,1.13.08,3.85,3.85,0,0,0,2.89-1.29,4.74,4.74,0,0,0,1.22-3.36,6.14,6.14,0,0,0-.58-2.64,4,4,0,0,0-1.65-1.82,4.83,4.83,0,0,0-2.42-.6,9.78,9.78,0,0,0-2.11.3Z"/><path d="M1131.34,333.56v3.31q1.85-3.31,3.8-3.31a2.12,2.12,0,0,1,1.47.53,1.67,1.67,0,0,1,.58,1.25,1.49,1.49,0,0,1-.42,1.07,1.33,1.33,0,0,1-1,.43,2.13,2.13,0,0,1-1.27-.55,2.09,2.09,0,0,0-1-.56,1,1,0,0,0-.63.32,7.53,7.53,0,0,0-1.5,2.18v7.07a4.23,4.23,0,0,0,.31,1.85,1.58,1.58,0,0,0,.74.73,3.27,3.27,0,0,0,1.53.29v.58h-7.56v-.58a3.24,3.24,0,0,0,1.68-.35,1.45,1.45,0,0,0,.56-.83,8.6,8.6,0,0,0,.08-1.56v-5.72a24.19,24.19,0,0,0-.1-3.07,1.2,1.2,0,0,0-.39-.72,1.09,1.09,0,0,0-.7-.22,3.19,3.19,0,0,0-1.13.24l-.16-.58,4.46-1.8Z"/><path d="M1143.1,333.56v11.85a5.59,5.59,0,0,0,.2,1.85,1.39,1.39,0,0,0,.6.68,3.16,3.16,0,0,0,1.44.23v.58h-7.17v-.58a3.34,3.34,0,0,0,1.45-.21,1.46,1.46,0,0,0,.59-.69,5.32,5.32,0,0,0,.22-1.86v-5.68a19.44,19.44,0,0,0-.15-3.11,1.21,1.21,0,0,0-.35-.72,1.06,1.06,0,0,0-.66-.2,3.22,3.22,0,0,0-1.1.24l-.23-.58,4.45-1.8Zm-1.34-7.72a1.62,1.62,0,0,1,1.16.47,1.65,1.65,0,0,1,0,2.31,1.64,1.64,0,0,1-2.8-1.16,1.59,1.59,0,0,1,.47-1.15A1.62,1.62,0,0,1,1141.76,325.84Z"/><path d="M1154.4,333.56a6.54,6.54,0,0,1,5.38,2.54,7.82,7.82,0,0,1,1.72,5,9.33,9.33,0,0,1-1,4,6.75,6.75,0,0,1-6.33,4.09,6.26,6.26,0,0,1-5.3-2.66,8.2,8.2,0,0,1-1.66-5,8.82,8.82,0,0,1,1-4,6.68,6.68,0,0,1,6.13-3.92Zm-.5,1a3.37,3.37,0,0,0-1.72.51,3.55,3.55,0,0,0-1.39,1.78,8.47,8.47,0,0,0-.53,3.27,11.34,11.34,0,0,0,1.28,5.56,3.81,3.81,0,0,0,3.37,2.34,3.16,3.16,0,0,0,2.58-1.29c.68-.86,1-2.34,1-4.43a10.09,10.09,0,0,0-1.7-6.19A3.48,3.48,0,0,0,1153.9,334.6Z"/><path d="M1168,333.56v3.31q1.85-3.31,3.8-3.31a2.12,2.12,0,0,1,1.47.53,1.71,1.71,0,0,1,.58,1.25,1.49,1.49,0,0,1-.42,1.07,1.35,1.35,0,0,1-1,.43,2.13,2.13,0,0,1-1.27-.55,2.07,2.07,0,0,0-1-.56,1,1,0,0,0-.63.32,7.74,7.74,0,0,0-1.49,2.18v7.07a4.4,4.4,0,0,0,.3,1.85,1.68,1.68,0,0,0,.74.73,3.33,3.33,0,0,0,1.53.29v.58H1163v-.58a3.17,3.17,0,0,0,1.67-.35,1.42,1.42,0,0,0,.57-.83,8.6,8.6,0,0,0,.08-1.56v-5.72a23.29,23.29,0,0,0-.11-3.07,1.24,1.24,0,0,0-.38-.72,1.11,1.11,0,0,0-.71-.22,3.18,3.18,0,0,0-1.12.24l-.16-.58,4.46-1.8Z"/><path d="M1179.76,333.56v11.85a5.59,5.59,0,0,0,.2,1.85,1.34,1.34,0,0,0,.6.68,3.16,3.16,0,0,0,1.44.23v.58h-7.17v-.58a3.34,3.34,0,0,0,1.45-.21,1.46,1.46,0,0,0,.59-.69,5.39,5.39,0,0,0,.21-1.86v-5.68a19.89,19.89,0,0,0-.14-3.11,1.22,1.22,0,0,0-.36-.72,1,1,0,0,0-.66-.2,3.22,3.22,0,0,0-1.09.24l-.23-.58,4.45-1.8Zm-1.34-7.72a1.63,1.63,0,0,1,1.15,2.78,1.52,1.52,0,0,1-1.15.49,1.66,1.66,0,0,1-1.64-1.65,1.59,1.59,0,0,1,.47-1.15A1.62,1.62,0,0,1,1178.42,325.84Z"/><path d="M1188.12,329.14V334h3.45v1.13h-3.45v9.57a3.22,3.22,0,0,0,.41,1.93,1.3,1.3,0,0,0,1.06.5,1.85,1.85,0,0,0,1-.33,2.1,2.1,0,0,0,.77-1h.63a5.06,5.06,0,0,1-1.6,2.37,3.36,3.36,0,0,1-2.12.8,2.87,2.87,0,0,1-1.45-.41,2.47,2.47,0,0,1-1-1.18,6.25,6.25,0,0,1-.34-2.36v-9.92h-2.33v-.53a6.3,6.3,0,0,0,1.81-1.2,9.63,9.63,0,0,0,1.65-2,17.38,17.38,0,0,0,1-2.24Z"/><path d="M1192.17,334h6.88v.6h-.34a1.61,1.61,0,0,0-1.09.31,1,1,0,0,0-.36.78,4.48,4.48,0,0,0,.53,1.74l3.59,7.45,3.31-8.16a3.4,3.4,0,0,0,.27-1.3.75.75,0,0,0-.11-.44.93.93,0,0,0-.41-.28,3,3,0,0,0-1-.1V334h4.8v.6a2.42,2.42,0,0,0-.92.25,2.74,2.74,0,0,0-.71.73,9.36,9.36,0,0,0-.55,1.24l-6,14.73a7.6,7.6,0,0,1-2.28,3.24,4.46,4.46,0,0,1-2.71,1.09,2.2,2.2,0,0,1-1.56-.55,1.63,1.63,0,0,1-.62-1.25,1.4,1.4,0,0,1,.45-1.09,1.72,1.72,0,0,1,1.21-.41,4.43,4.43,0,0,1,1.45.35,3.71,3.71,0,0,0,.81.25,1.68,1.68,0,0,0,1.05-.5,5.25,5.25,0,0,0,1.16-1.94l1-2.56-5.3-11.13a9.11,9.11,0,0,0-.77-1.25,3.87,3.87,0,0,0-.66-.75,3.79,3.79,0,0,0-1.19-.45Z"/><path d="M1120.23,388.35,1111.79,370v14.6a4.51,4.51,0,0,0,.43,2.52,2.4,2.4,0,0,0,1.89.67h.77v.6h-7.61v-.6h.78a2.22,2.22,0,0,0,2-.83,4.86,4.86,0,0,0,.36-2.36V370.29a4.91,4.91,0,0,0-.33-2.1,1.76,1.76,0,0,0-.83-.78,4.41,4.41,0,0,0-1.94-.31v-.6h6.19l7.93,17.1,7.8-17.1h6.19v.6h-.76a2.24,2.24,0,0,0-2,.83,4.86,4.86,0,0,0-.36,2.36v14.27a4.37,4.37,0,0,0,.45,2.52,2.4,2.4,0,0,0,1.89.67h.76v.6h-9.29v-.6h.78a2.2,2.2,0,0,0,2-.83,4.86,4.86,0,0,0,.36-2.36V370l-8.43,18.39Z"/><path d="M1144.32,373.16a6.53,6.53,0,0,1,5.38,2.54,7.82,7.82,0,0,1,1.72,5,9.3,9.3,0,0,1-1,4,6.75,6.75,0,0,1-6.33,4.09,6.24,6.24,0,0,1-5.3-2.66,8.2,8.2,0,0,1-1.66-5,8.82,8.82,0,0,1,1-4,6.68,6.68,0,0,1,6.13-3.92Zm-.5,1a3.37,3.37,0,0,0-1.72.51,3.55,3.55,0,0,0-1.39,1.78,8.47,8.47,0,0,0-.53,3.27,11.34,11.34,0,0,0,1.28,5.56,3.81,3.81,0,0,0,3.37,2.34,3.14,3.14,0,0,0,2.58-1.29c.68-.86,1-2.34,1-4.43a10.09,10.09,0,0,0-1.7-6.19A3.48,3.48,0,0,0,1143.82,374.2Z"/><path d="M1164,386.69a7.5,7.5,0,0,1-2.11,1.62,5,5,0,0,1-2.22.49,5.49,5.49,0,0,1-4.22-2,7.49,7.49,0,0,1-1.81-5.2,9.43,9.43,0,0,1,2-5.81,6.19,6.19,0,0,1,5.14-2.63,4.41,4.41,0,0,1,3.22,1.24v-2.72a22.33,22.33,0,0,0-.12-3.11,1.3,1.3,0,0,0-.38-.79,1,1,0,0,0-.64-.21,3.19,3.19,0,0,0-1.11.26l-.21-.57,4.4-1.8h.72V382.5a23,23,0,0,0,.12,3.17,1.36,1.36,0,0,0,.39.79.89.89,0,0,0,.62.23,3.53,3.53,0,0,0,1.16-.27l.18.56-4.39,1.82H1164Zm0-1.13V378a5,5,0,0,0-.58-2,3.31,3.31,0,0,0-1.28-1.36,3.06,3.06,0,0,0-1.55-.46,3.28,3.28,0,0,0-2.53,1.27,7.23,7.23,0,0,0-1.47,4.9,7.69,7.69,0,0,0,1.42,5,4.07,4.07,0,0,0,3.16,1.73A3.9,3.9,0,0,0,1164,385.56Z"/><path d="M1183,373.59v8.94a22.68,22.68,0,0,0,.12,3.14,1.42,1.42,0,0,0,.38.79.91.91,0,0,0,.63.23,2.88,2.88,0,0,0,1.12-.27l.23.56-4.42,1.82h-.72v-3.12a13.61,13.61,0,0,1-2.9,2.59,4.49,4.49,0,0,1-2.11.53,3.34,3.34,0,0,1-2.15-.72,3.68,3.68,0,0,1-1.27-1.84,11.06,11.06,0,0,1-.35-3.19v-6.59a3.24,3.24,0,0,0-.23-1.45,1.44,1.44,0,0,0-.67-.62,3.84,3.84,0,0,0-1.6-.2v-.6h5.17v9.88a3.65,3.65,0,0,0,.72,2.7,2.5,2.5,0,0,0,1.73.65,3.61,3.61,0,0,0,1.57-.44,8.42,8.42,0,0,0,2.09-1.66v-8.36a2.35,2.35,0,0,0-.46-1.7,3,3,0,0,0-1.91-.47v-.6Z"/><path d="M1191.67,365.44V385a5.14,5.14,0,0,0,.21,1.84,1.44,1.44,0,0,0,.62.69,3.66,3.66,0,0,0,1.56.23v.58h-7.24v-.58a3.14,3.14,0,0,0,1.39-.21,1.39,1.39,0,0,0,.58-.69A5.39,5.39,0,0,0,1189,385v-13.4a24.44,24.44,0,0,0-.11-3.07,1.35,1.35,0,0,0-.37-.78.92.92,0,0,0-.63-.21,2.88,2.88,0,0,0-1.07.26l-.27-.57,4.4-1.8Z"/><path d="M1198.25,379.15a7.62,7.62,0,0,0,1.59,5.16,4.89,4.89,0,0,0,3.79,1.86,4.09,4.09,0,0,0,2.52-.79,5.8,5.8,0,0,0,1.8-2.73l.5.32a7.7,7.7,0,0,1-2,4,5.23,5.23,0,0,1-4.07,1.81,6,6,0,0,1-4.56-2.07,8,8,0,0,1-1.89-5.57,8.43,8.43,0,0,1,1.94-5.9,6.36,6.36,0,0,1,4.88-2.12,5.43,5.43,0,0,1,4.07,1.63,6,6,0,0,1,1.6,4.38Zm0-.94h6.83a6.18,6.18,0,0,0-.34-2,3.21,3.21,0,0,0-1.2-1.42,3,3,0,0,0-1.66-.52,3.35,3.35,0,0,0-2.4,1A4.56,4.56,0,0,0,1198.25,378.21Z"/><path d="M616.83,357.64l6.75,17.13,3.66-12.8a9.65,9.65,0,0,0,.45-2.45,1.15,1.15,0,0,0-.41-.93,2.6,2.6,0,0,0-1.57-.34,2.75,2.75,0,0,1-.4,0l.18-.59h7l-.19.59a4,4,0,0,0-1.63.23,2.77,2.77,0,0,0-1.13.87,10,10,0,0,0-1,2.64l-5.14,18h-.59l-7.26-18.44-3.89,13.62a10,10,0,0,0-.43,2.37,1.09,1.09,0,0,0,.39.92,4,4,0,0,0,1.88.43l-.16.6h-6.86l.22-.6a5.63,5.63,0,0,0,1.73-.22,2.34,2.34,0,0,0,1-.76,11.43,11.43,0,0,0,1.05-2.74l4.33-15.2a3.71,3.71,0,0,0-1.34-1.32,5.61,5.61,0,0,0-2.24-.42l.18-.59Z"/><path d="M644.65,370a9.87,9.87,0,0,1-1.29,4.78,9.7,9.7,0,0,1-3.57,3.76,8.56,8.56,0,0,1-4.44,1.38,4.84,4.84,0,0,1-3.6-1.41,5,5,0,0,1-1.4-3.65,9.61,9.61,0,0,1,1.36-4.75,10.32,10.32,0,0,1,3.65-3.77,8.49,8.49,0,0,1,4.4-1.38,4.69,4.69,0,0,1,3.51,1.4A5,5,0,0,1,644.65,370ZM642,368.84a3.27,3.27,0,0,0-.73-2.3,2.47,2.47,0,0,0-1.9-.8q-2.37,0-4.35,3.4a13.18,13.18,0,0,0-2,6.74,3.31,3.31,0,0,0,.77,2.36,2.55,2.55,0,0,0,2,.83q2.26,0,4.26-3.38A13.31,13.31,0,0,0,642,368.84Z"/><path d="M653.17,364.91,651,372.24a34.09,34.09,0,0,1,4.61-5.92,4.79,4.79,0,0,1,3.09-1.41,1.78,1.78,0,0,1,1.33.53,1.86,1.86,0,0,1,.52,1.38,9.85,9.85,0,0,1-.47,2.58l-2,6.78a8,8,0,0,0-.34,1.44.55.55,0,0,0,.13.38.36.36,0,0,0,.27.15.82.82,0,0,0,.47-.21,10.91,10.91,0,0,0,1.87-2.06l.5.3a12.33,12.33,0,0,1-2.84,3.07,3.06,3.06,0,0,1-1.67.62,1.26,1.26,0,0,1-.95-.36,1.31,1.31,0,0,1-.36-1,11.05,11.05,0,0,1,.55-2.66l1.87-6.48a7.38,7.38,0,0,0,.35-1.88.71.71,0,0,0-.21-.53.73.73,0,0,0-.51-.2,2.16,2.16,0,0,0-1.08.39,9.57,9.57,0,0,0-2.48,2.39,33.89,33.89,0,0,0-2.73,4.26,15.87,15.87,0,0,0-1.25,3l-.81,2.66h-2.42l2.94-10.09a13.2,13.2,0,0,0,.51-2.19.82.82,0,0,0-.28-.62,1,1,0,0,0-.7-.27,5.06,5.06,0,0,0-.68.07l-.61.09-.1-.58Z"/><path d="M672.26,371.25l-.66,2.15h-8.34l.66-2.15Z"/><path d="M686.12,376a12.28,12.28,0,0,1-3.38,2.95,7.37,7.37,0,0,1-3.61.94,4.83,4.83,0,0,1-3.57-1.28,4.69,4.69,0,0,1-1.28-3.47,9.59,9.59,0,0,1,1.38-4.85,11.06,11.06,0,0,1,3.7-3.87,8.41,8.41,0,0,1,4.57-1.49,4,4,0,0,1,2.63.73,2.27,2.27,0,0,1,.87,1.8,2.51,2.51,0,0,1-.62,1.7,1.37,1.37,0,0,1-1.11.55,1.16,1.16,0,0,1-.83-.32,1.09,1.09,0,0,1-.33-.81,1.31,1.31,0,0,1,.12-.56,2.35,2.35,0,0,1,.5-.62,2.64,2.64,0,0,0,.46-.52.84.84,0,0,0,.08-.34.69.69,0,0,0-.3-.57,2.4,2.4,0,0,0-1.33-.32,5.31,5.31,0,0,0-3.12,1.11,9.1,9.1,0,0,0-2.64,3.16,10.38,10.38,0,0,0-1.33,5,3.6,3.6,0,0,0,.94,2.61,3.37,3.37,0,0,0,2.54.95,5.28,5.28,0,0,0,2.46-.62,10.54,10.54,0,0,0,2.73-2.24Z"/><path d="M703.28,370a10,10,0,0,1-1.28,4.78,9.7,9.7,0,0,1-3.57,3.76,8.6,8.6,0,0,1-4.45,1.38,4.84,4.84,0,0,1-3.6-1.41,5,5,0,0,1-1.39-3.65,9.51,9.51,0,0,1,1.36-4.75,10.29,10.29,0,0,1,3.64-3.77,8.52,8.52,0,0,1,4.41-1.38,4.67,4.67,0,0,1,3.5,1.4A5,5,0,0,1,703.28,370Zm-2.67-1.11a3.28,3.28,0,0,0-.74-2.3,2.46,2.46,0,0,0-1.89-.8q-2.37,0-4.36,3.4a13.18,13.18,0,0,0-2,6.74,3.35,3.35,0,0,0,.77,2.36,2.58,2.58,0,0,0,2,.83q2.28,0,4.27-3.38A13.41,13.41,0,0,0,700.61,368.84Z"/><path d="M711.8,364.91l-2.14,7.33a34.51,34.51,0,0,1,4.62-5.92,4.79,4.79,0,0,1,3.08-1.41,1.76,1.76,0,0,1,1.33.53,1.87,1.87,0,0,1,.53,1.38,9.85,9.85,0,0,1-.47,2.58l-2,6.78a8.54,8.54,0,0,0-.33,1.44.6.6,0,0,0,.12.38.38.38,0,0,0,.28.15.85.85,0,0,0,.47-.21,10.91,10.91,0,0,0,1.86-2.06l.5.3a12.14,12.14,0,0,1-2.83,3.07,3.09,3.09,0,0,1-1.68.62,1.27,1.27,0,0,1-.95-.36,1.34,1.34,0,0,1-.35-1,11.05,11.05,0,0,1,.55-2.66l1.86-6.48a7.06,7.06,0,0,0,.36-1.88.71.71,0,0,0-.21-.53.73.73,0,0,0-.52-.2,2.16,2.16,0,0,0-1.08.39,9.73,9.73,0,0,0-2.48,2.39,32.84,32.84,0,0,0-2.72,4.26,15.89,15.89,0,0,0-1.26,3l-.8,2.66h-2.42l2.93-10.09a12.62,12.62,0,0,0,.52-2.19.85.85,0,0,0-.28-.62,1,1,0,0,0-.7-.27,4.92,4.92,0,0,0-.68.07l-.61.09-.1-.58Z"/><path d="M730.8,365.29l-.29,1.07h-2.35l-1.77,7a43.08,43.08,0,0,1-2.37,7.2,12.36,12.36,0,0,1-3.64,5,5.12,5.12,0,0,1-3,1.05,2.42,2.42,0,0,1-1.64-.58,1.3,1.3,0,0,1-.5-1,1.18,1.18,0,0,1,.41-.89,1.44,1.44,0,0,1,1-.38,1,1,0,0,1,.73.27.81.81,0,0,1,0,1.29c-.17.15-.26.27-.26.34a.28.28,0,0,0,.11.23.8.8,0,0,0,.46.11,3,3,0,0,0,1.45-.44,4.27,4.27,0,0,0,1.37-1.29,10.18,10.18,0,0,0,1.12-2.49c.15-.45.56-1.94,1.21-4.47l2.81-10.9h-2.81l.23-1.07a6.65,6.65,0,0,0,1.87-.18,2.3,2.3,0,0,0,1-.71,10.22,10.22,0,0,0,1.15-2,16.29,16.29,0,0,1,1.82-3,9,9,0,0,1,2.51-2.15,5.19,5.19,0,0,1,2.47-.72,3,3,0,0,1,2,.62,1.8,1.8,0,0,1,.74,1.35,1.3,1.3,0,0,1-.37.95,1.25,1.25,0,0,1-1,.39,1.16,1.16,0,0,1-.81-.29.93.93,0,0,1-.32-.69,1.36,1.36,0,0,1,.21-.64,1.38,1.38,0,0,0,.21-.51.43.43,0,0,0-.14-.34,1.07,1.07,0,0,0-.62-.16,2.86,2.86,0,0,0-1.82.65,7.31,7.31,0,0,0-1.93,2.67c-.29.63-.82,2.21-1.6,4.72Z"/><path d="M740,356.57l-5.51,19.18a9.81,9.81,0,0,0-.4,1.76.57.57,0,0,0,.15.4.49.49,0,0,0,.38.16,1.09,1.09,0,0,0,.66-.27,8.8,8.8,0,0,0,1.76-2.05l.48.5a11.74,11.74,0,0,1-2.82,3,3.31,3.31,0,0,1-1.8.61,1.43,1.43,0,0,1-1-.41,1.37,1.37,0,0,1-.41-1,11.07,11.07,0,0,1,.52-2.39L736.35,361a16,16,0,0,0,.53-2.13.76.76,0,0,0-.31-.63,1.46,1.46,0,0,0-1-.25,7.66,7.66,0,0,0-1.13.11v-.6Z"/><path d="M747,364.91l-3.19,11.29a7.73,7.73,0,0,0-.32,1.37.6.6,0,0,0,.15.42.46.46,0,0,0,.36.16,1,1,0,0,0,.58-.26,9.57,9.57,0,0,0,1.85-2.06l.57.37a11.28,11.28,0,0,1-2.58,2.82,3.45,3.45,0,0,1-2.09.85,1.51,1.51,0,0,1-1.08-.39,1.29,1.29,0,0,1-.42-1,8.08,8.08,0,0,1,.4-2l2.1-7.22a11.55,11.55,0,0,0,.51-2.23.74.74,0,0,0-.25-.58,1,1,0,0,0-.68-.22,11.71,11.71,0,0,0-1.47.18v-.63Zm-.21-6.4a1.52,1.52,0,0,1,1.14.47,1.55,1.55,0,0,1,.47,1.14,1.61,1.61,0,1,1-3.22,0,1.6,1.6,0,0,1,1.61-1.61Z"/><path d="M761.27,376a12.13,12.13,0,0,1-3.38,2.95,7.34,7.34,0,0,1-3.61.94,4.83,4.83,0,0,1-3.57-1.28,4.73,4.73,0,0,1-1.28-3.47,9.59,9.59,0,0,1,1.38-4.85,11.15,11.15,0,0,1,3.7-3.87,8.44,8.44,0,0,1,4.57-1.49,4,4,0,0,1,2.63.73,2.27,2.27,0,0,1,.87,1.8,2.55,2.55,0,0,1-.61,1.7,1.39,1.39,0,0,1-1.12.55,1.16,1.16,0,0,1-.83-.32,1.09,1.09,0,0,1-.33-.81,1.31,1.31,0,0,1,.12-.56,2.58,2.58,0,0,1,.5-.62,2.33,2.33,0,0,0,.46-.52.71.71,0,0,0,.08-.34.69.69,0,0,0-.3-.57,2.34,2.34,0,0,0-1.32-.32,5.32,5.32,0,0,0-3.13,1.11,9.1,9.1,0,0,0-2.64,3.16,10.47,10.47,0,0,0-1.32,5,3.59,3.59,0,0,0,.93,2.61,3.38,3.38,0,0,0,2.55.95,5.27,5.27,0,0,0,2.45-.62,10.4,10.4,0,0,0,2.74-2.24Z"/><path d="M771.75,360.91l-1.26,4.38H773l-.27,1h-2.52l-2.77,9.5a9.57,9.57,0,0,0-.45,2,.56.56,0,0,0,.13.41.38.38,0,0,0,.3.15,1.92,1.92,0,0,0,1.07-.56,19.82,19.82,0,0,0,1.72-2l.53.41a11.41,11.41,0,0,1-2.8,3,3.2,3.2,0,0,1-1.82.61,1.57,1.57,0,0,1-1.16-.44,1.51,1.51,0,0,1-.45-1.13,10.83,10.83,0,0,1,.51-2.66l2.69-9.33H765.3l.16-.63a7.83,7.83,0,0,0,2.95-1.44,13.61,13.61,0,0,0,2.63-3.33Z"/><path d="M657.37,396.74l-1.66,18.17c-.09.85-.13,1.41-.13,1.68a1.67,1.67,0,0,0,.24,1,1.78,1.78,0,0,0,.83.7,4.92,4.92,0,0,0,1.76.22l-.17.6h-8.61l.18-.6h.37a3,3,0,0,0,1.71-.45,1.93,1.93,0,0,0,.72-1,12.67,12.67,0,0,0,.34-2.36l.26-2.77H647l-2.23,3a9.86,9.86,0,0,0-1,1.46,2.07,2.07,0,0,0-.19.83,1.15,1.15,0,0,0,.42.89,2.16,2.16,0,0,0,1.38.4l-.17.6h-6.47l.18-.6a3.44,3.44,0,0,0,2.11-.8,20.28,20.28,0,0,0,2.71-3.19l13-17.76Zm-3.2,5.36-6.33,8.63h5.5Z"/><path d="M673.27,415.58a12.3,12.3,0,0,1-3.39,2.95,7.31,7.31,0,0,1-3.6,1,4.79,4.79,0,0,1-3.57-1.29,4.69,4.69,0,0,1-1.28-3.47,9.58,9.58,0,0,1,1.37-4.85,11.18,11.18,0,0,1,3.71-3.87,8.39,8.39,0,0,1,4.57-1.49,4,4,0,0,1,2.62.73,2.27,2.27,0,0,1,.87,1.8,2.5,2.5,0,0,1-.61,1.7,1.37,1.37,0,0,1-1.11.55A1.16,1.16,0,0,1,672,409a1.09,1.09,0,0,1-.33-.81,1.31,1.31,0,0,1,.12-.56,2.35,2.35,0,0,1,.5-.62,2.64,2.64,0,0,0,.46-.52.84.84,0,0,0,.08-.34.67.67,0,0,0-.31-.57,2.34,2.34,0,0,0-1.32-.32,5.31,5.31,0,0,0-3.12,1.11,9.12,9.12,0,0,0-2.65,3.16,10.47,10.47,0,0,0-1.32,5,3.56,3.56,0,0,0,.94,2.61,3.37,3.37,0,0,0,2.54.95,5.28,5.28,0,0,0,2.46-.62,10.54,10.54,0,0,0,2.73-2.24Z"/><path d="M683.74,400.51l-1.25,4.38H685l-.28,1h-2.51l-2.77,9.5a9.71,9.71,0,0,0-.45,2,.61.61,0,0,0,.12.41.4.4,0,0,0,.31.15,1.91,1.91,0,0,0,1.06-.56,19.36,19.36,0,0,0,1.73-2l.53.41a11.41,11.41,0,0,1-2.8,3,3.24,3.24,0,0,1-1.82.62A1.56,1.56,0,0,1,677,419a1.48,1.48,0,0,1-.46-1.13,11,11,0,0,1,.52-2.66l2.69-9.33H677.3l.16-.63a7.9,7.9,0,0,0,2.95-1.44,13.39,13.39,0,0,0,2.62-3.33Z"/><path d="M691.93,404.51l-3.19,11.29a7.73,7.73,0,0,0-.32,1.37.6.6,0,0,0,.15.42.46.46,0,0,0,.36.16,1,1,0,0,0,.58-.26,9.59,9.59,0,0,0,1.86-2.06l.56.37a11.28,11.28,0,0,1-2.58,2.82,3.47,3.47,0,0,1-2.09.86,1.53,1.53,0,0,1-1.08-.4,1.29,1.29,0,0,1-.42-1,8.08,8.08,0,0,1,.4-2l2.1-7.22a11.55,11.55,0,0,0,.51-2.23.74.74,0,0,0-.25-.58,1,1,0,0,0-.68-.22,11.71,11.71,0,0,0-1.47.18v-.63Zm-.21-6.4a1.52,1.52,0,0,1,1.14.47,1.55,1.55,0,0,1,.47,1.14,1.61,1.61,0,1,1-3.22,0,1.6,1.6,0,0,1,1.61-1.61Z"/><path d="M708.77,409.55a10,10,0,0,1-1.28,4.78,9.78,9.78,0,0,1-3.57,3.76,8.64,8.64,0,0,1-4.45,1.39,4.81,4.81,0,0,1-3.6-1.42,4.94,4.94,0,0,1-1.4-3.64,9.53,9.53,0,0,1,1.37-4.76,10.21,10.21,0,0,1,3.64-3.77,8.52,8.52,0,0,1,4.4-1.38,4.69,4.69,0,0,1,3.51,1.4A5,5,0,0,1,708.77,409.55Zm-2.68-1.11a3.27,3.27,0,0,0-.73-2.3,2.46,2.46,0,0,0-1.89-.8c-1.58,0-3,1.13-4.36,3.4a13.18,13.18,0,0,0-2,6.74,3.35,3.35,0,0,0,.77,2.36,2.58,2.58,0,0,0,2,.83q2.28,0,4.26-3.38A13.31,13.31,0,0,0,706.09,408.44Z"/><path d="M717.29,404.51l-2.14,7.33a35.12,35.12,0,0,1,4.61-5.92,4.79,4.79,0,0,1,3.09-1.41,1.76,1.76,0,0,1,1.33.53,1.86,1.86,0,0,1,.52,1.38,9.76,9.76,0,0,1-.46,2.58l-2,6.78a8,8,0,0,0-.34,1.44.55.55,0,0,0,.13.38.38.38,0,0,0,.27.15.82.82,0,0,0,.47-.21,10.91,10.91,0,0,0,1.87-2.06l.5.3a12.15,12.15,0,0,1-2.84,3.07,3.09,3.09,0,0,1-1.67.63,1.26,1.26,0,0,1-.95-.37,1.31,1.31,0,0,1-.36-1,11.59,11.59,0,0,1,.55-2.66l1.87-6.48a7.06,7.06,0,0,0,.36-1.88.7.7,0,0,0-.73-.73,2.16,2.16,0,0,0-1.08.39,9.73,9.73,0,0,0-2.48,2.39,32.84,32.84,0,0,0-2.72,4.26,15.26,15.26,0,0,0-1.26,3l-.81,2.66h-2.41L713.57,409a13.2,13.2,0,0,0,.51-2.19.82.82,0,0,0-.28-.62,1,1,0,0,0-.7-.27,5.06,5.06,0,0,0-.68.07l-.61.09-.09-.58Z"/><path d="M738.48,404.51l-1,4.94h-.6a5.08,5.08,0,0,0-.92-3.14,2.61,2.61,0,0,0-2.08-1,2.2,2.2,0,0,0-1.58.55,1.7,1.7,0,0,0-.59,1.32,2.37,2.37,0,0,0,.23,1,6.82,6.82,0,0,0,1,1.35,20.26,20.26,0,0,1,2.7,3.45,4.73,4.73,0,0,1,.61,2.19,4,4,0,0,1-1.39,3,5,5,0,0,1-3.52,1.3,8.2,8.2,0,0,1-2.68-.55,2.57,2.57,0,0,0-.82-.2,1.17,1.17,0,0,0-1.09.75h-.6l1-5.23h.6a5.48,5.48,0,0,0,1,3.47,3.2,3.2,0,0,0,2.51,1,2.67,2.67,0,0,0,1.94-.68,2.25,2.25,0,0,0,.72-1.69,2.83,2.83,0,0,0-.26-1.19,13.86,13.86,0,0,0-1.89-2.67,14.92,14.92,0,0,1-1.86-2.56,4,4,0,0,1-.41-1.71,3.5,3.5,0,0,1,1.14-2.64,4.07,4.07,0,0,1,2.92-1.08,4.51,4.51,0,0,1,.94.08,9.26,9.26,0,0,1,1.05.36,4,4,0,0,0,1.11.31,1.36,1.36,0,0,0,1.16-.75Z"/><path d="M670.36,622.29l-1.63,7.07h-.58l-.06-1.77a6.22,6.22,0,0,0-.38-1.72,3.56,3.56,0,0,0-.86-1.32,4.1,4.1,0,0,0-1.47-.87,5.86,5.86,0,0,0-2-.31,8.33,8.33,0,0,0-5,1.58,13.23,13.23,0,0,0-4.32,5.69,15.48,15.48,0,0,0-1.29,6.13,6.91,6.91,0,0,0,1.86,5.07,6.4,6.4,0,0,0,4.81,1.9,7.93,7.93,0,0,0,4-1,10.65,10.65,0,0,0,3.25-3.08h.76a12.75,12.75,0,0,1-3.94,4.15,9.72,9.72,0,0,1-5.17,1.33,9.88,9.88,0,0,1-4.74-1.12,7.63,7.63,0,0,1-3.14-3.15,9.18,9.18,0,0,1-1.08-4.37,14.55,14.55,0,0,1,7.18-12.28,13.34,13.34,0,0,1,6.74-1.93,10,10,0,0,1,3.58.76,4.34,4.34,0,0,0,1.26.32,1.41,1.41,0,0,0,.67-.16,5.05,5.05,0,0,0,1-.92Z"/><path d="M684.41,635.1a10,10,0,0,1-1.28,4.78,9.78,9.78,0,0,1-3.57,3.76,8.62,8.62,0,0,1-4.45,1.38,4.81,4.81,0,0,1-3.6-1.41,4.93,4.93,0,0,1-1.39-3.64,9.52,9.52,0,0,1,1.36-4.76,10.29,10.29,0,0,1,3.64-3.77,8.52,8.52,0,0,1,4.41-1.38,4.69,4.69,0,0,1,3.5,1.4A5,5,0,0,1,684.41,635.1ZM681.73,634a3.27,3.27,0,0,0-.73-2.3,2.46,2.46,0,0,0-1.89-.8q-2.37,0-4.36,3.4a13.18,13.18,0,0,0-2,6.74,3.35,3.35,0,0,0,.77,2.36,2.58,2.58,0,0,0,2,.83q2.28,0,4.26-3.38A13.31,13.31,0,0,0,681.73,634Z"/><path d="M692.93,630.06l-2.14,7.33a34.51,34.51,0,0,1,4.62-5.92,4.74,4.74,0,0,1,3.08-1.41,1.76,1.76,0,0,1,1.33.53,1.86,1.86,0,0,1,.52,1.38,9.76,9.76,0,0,1-.46,2.58l-2,6.78a9.08,9.08,0,0,0-.34,1.44.6.6,0,0,0,.13.38.38.38,0,0,0,.28.15.83.83,0,0,0,.46-.21,10.58,10.58,0,0,0,1.87-2.06l.5.3A12.32,12.32,0,0,1,698,644.4a3.2,3.2,0,0,1-1.68.62,1.27,1.27,0,0,1-.95-.36,1.3,1.3,0,0,1-.35-1,11.41,11.41,0,0,1,.54-2.66l1.87-6.48a7.06,7.06,0,0,0,.36-1.88.71.71,0,0,0-.21-.53.73.73,0,0,0-.52-.2,2.16,2.16,0,0,0-1.08.39,9.73,9.73,0,0,0-2.48,2.39,32.84,32.84,0,0,0-2.72,4.26,15.26,15.26,0,0,0-1.26,3l-.81,2.66h-2.41l2.93-10.09a13.75,13.75,0,0,0,.52-2.19.83.83,0,0,0-.29-.62,1,1,0,0,0-.7-.27,4.82,4.82,0,0,0-.67.07l-.62.09-.09-.58Z"/><path d="M711.93,630.44l-.29,1.07h-2.35l-1.78,7a42.29,42.29,0,0,1-2.36,7.2,12.37,12.37,0,0,1-3.65,5,5.07,5.07,0,0,1-3,1,2.42,2.42,0,0,1-1.64-.58,1.27,1.27,0,0,1-.5-1,1.15,1.15,0,0,1,.41-.89,1.44,1.44,0,0,1,1-.38,1.06,1.06,0,0,1,.73.27.86.86,0,0,1,.3.63.9.9,0,0,1-.34.66c-.17.15-.26.27-.26.34a.28.28,0,0,0,.11.23.78.78,0,0,0,.45.11,3,3,0,0,0,1.46-.44,4.15,4.15,0,0,0,1.36-1.29,9.79,9.79,0,0,0,1.13-2.49c.15-.45.55-1.94,1.21-4.47l2.8-10.9H704l.23-1.07a6.65,6.65,0,0,0,1.87-.18,2.36,2.36,0,0,0,1-.71,10.78,10.78,0,0,0,1.15-2,16.29,16.29,0,0,1,1.82-3,9,9,0,0,1,2.51-2.15,5.14,5.14,0,0,1,2.47-.71,2.94,2.94,0,0,1,2,.62,1.76,1.76,0,0,1,.74,1.34,1.3,1.3,0,0,1-.37.95,1.27,1.27,0,0,1-1,.39,1.17,1.17,0,0,1-.82-.29.92.92,0,0,1-.31-.69,1.36,1.36,0,0,1,.21-.64,1.38,1.38,0,0,0,.21-.51.41.41,0,0,0-.15-.34,1,1,0,0,0-.61-.16,2.84,2.84,0,0,0-1.82.65,7.31,7.31,0,0,0-1.93,2.67c-.29.64-.83,2.21-1.6,4.72Z"/><path d="M721.13,621.73l-5.51,19.17a9.81,9.81,0,0,0-.4,1.76.57.57,0,0,0,.15.4.49.49,0,0,0,.38.16,1.13,1.13,0,0,0,.66-.27,9,9,0,0,0,1.76-2.05l.48.5a11.74,11.74,0,0,1-2.82,3A3.34,3.34,0,0,1,714,645a1.4,1.4,0,0,1-1.43-1.38,11.07,11.07,0,0,1,.52-2.39l4.36-15.11A14.39,14.39,0,0,0,718,624a.78.78,0,0,0-.3-.63,1.48,1.48,0,0,0-1-.25,7.54,7.54,0,0,0-1.13.11v-.6Z"/><path d="M728.08,630.06l-3.2,11.29a8.88,8.88,0,0,0-.32,1.37.57.57,0,0,0,.16.42.46.46,0,0,0,.36.16,1.06,1.06,0,0,0,.58-.26,9.57,9.57,0,0,0,1.85-2.06l.57.37a11.47,11.47,0,0,1-2.58,2.82,3.45,3.45,0,0,1-2.1.85,1.52,1.52,0,0,1-1.08-.39,1.29,1.29,0,0,1-.42-1,8.23,8.23,0,0,1,.41-2l2.09-7.22a11.11,11.11,0,0,0,.52-2.23.78.78,0,0,0-.25-.58,1,1,0,0,0-.69-.22,11.84,11.84,0,0,0-1.46.18V631Zm-.21-6.4a1.52,1.52,0,0,1,1.14.47,1.62,1.62,0,0,1-1.14,2.75,1.59,1.59,0,0,1-1.14-.47,1.61,1.61,0,0,1,0-2.28A1.54,1.54,0,0,1,727.87,623.66Z"/><path d="M742.4,641.13a12.28,12.28,0,0,1-3.38,3,7.37,7.37,0,0,1-3.61.94,4.79,4.79,0,0,1-3.57-1.28,4.69,4.69,0,0,1-1.28-3.47,9.59,9.59,0,0,1,1.38-4.85,11.06,11.06,0,0,1,3.7-3.87,8.41,8.41,0,0,1,4.57-1.49,4,4,0,0,1,2.63.73,2.27,2.27,0,0,1,.87,1.8,2.51,2.51,0,0,1-.62,1.7,1.37,1.37,0,0,1-1.11.55,1.16,1.16,0,0,1-.83-.32,1.09,1.09,0,0,1-.33-.81,1.31,1.31,0,0,1,.12-.56,2.35,2.35,0,0,1,.5-.62,2.64,2.64,0,0,0,.46-.52.71.71,0,0,0,.08-.34.69.69,0,0,0-.3-.57,2.4,2.4,0,0,0-1.33-.32,5.31,5.31,0,0,0-3.12,1.11,9.1,9.1,0,0,0-2.64,3.16,10.49,10.49,0,0,0-1.33,5,3.6,3.6,0,0,0,.94,2.61,3.38,3.38,0,0,0,2.55,1,5.27,5.27,0,0,0,2.45-.62,10.54,10.54,0,0,0,2.73-2.24Z"/><path d="M752.87,626.06l-1.25,4.38h2.53l-.28,1h-2.51l-2.77,9.5a9.57,9.57,0,0,0-.45,2,.56.56,0,0,0,.13.41.37.37,0,0,0,.3.15,2,2,0,0,0,1.07-.56,21.32,21.32,0,0,0,1.72-2l.53.41a11.41,11.41,0,0,1-2.8,3,3.2,3.2,0,0,1-1.82.61,1.55,1.55,0,0,1-1.16-.44,1.51,1.51,0,0,1-.45-1.13,10.83,10.83,0,0,1,.51-2.66l2.69-9.33h-2.43l.16-.63a7.9,7.9,0,0,0,2.95-1.44,13.61,13.61,0,0,0,2.63-3.33Z"/><path d="M667.81,661.89l-1.66,18.17c-.08.85-.13,1.41-.13,1.68a1.59,1.59,0,0,0,.25,1,1.86,1.86,0,0,0,.82.7,5,5,0,0,0,1.77.22l-.18.6h-8.6l.17-.6h.38a3,3,0,0,0,1.7-.45,1.94,1.94,0,0,0,.73-1,12.67,12.67,0,0,0,.34-2.36l.25-2.77H657.4l-2.22,3a9.08,9.08,0,0,0-.95,1.46,2.1,2.1,0,0,0-.19.83,1.14,1.14,0,0,0,.41.89,2.19,2.19,0,0,0,1.39.4l-.18.6H649.2l.18-.6a3.44,3.44,0,0,0,2.1-.8,20.18,20.18,0,0,0,2.72-3.19l13-17.76Zm-3.19,5.36-6.33,8.63h5.49Z"/><path d="M683.72,680.73a12.3,12.3,0,0,1-3.39,2.95,7.34,7.34,0,0,1-3.61.94,4.86,4.86,0,0,1-3.57-1.28,4.73,4.73,0,0,1-1.28-3.47,9.59,9.59,0,0,1,1.38-4.85,11.09,11.09,0,0,1,3.71-3.87,8.38,8.38,0,0,1,4.56-1.49,4,4,0,0,1,2.63.73,2.27,2.27,0,0,1,.87,1.8,2.5,2.5,0,0,1-.61,1.7,1.37,1.37,0,0,1-1.11.55,1.15,1.15,0,0,1-.83-.32,1.09,1.09,0,0,1-.33-.81,1.31,1.31,0,0,1,.12-.56,2.16,2.16,0,0,1,.5-.62,3.05,3.05,0,0,0,.46-.52.81.81,0,0,0,.08-.34.7.7,0,0,0-.31-.57,2.34,2.34,0,0,0-1.32-.32,5.34,5.34,0,0,0-3.13,1.11,9.1,9.1,0,0,0-2.64,3.16,10.5,10.5,0,0,0-1.32,5,3.59,3.59,0,0,0,.93,2.61,3.41,3.41,0,0,0,2.55.95,5.28,5.28,0,0,0,2.46-.62,10.54,10.54,0,0,0,2.73-2.24Z"/><path d="M694.19,665.66,692.93,670h2.53l-.27,1h-2.52l-2.77,9.5a9.57,9.57,0,0,0-.45,2,.66.66,0,0,0,.13.42.43.43,0,0,0,.31.14,1.91,1.91,0,0,0,1.06-.56,19.82,19.82,0,0,0,1.72-2l.54.41a11.42,11.42,0,0,1-2.81,3,3.2,3.2,0,0,1-1.82.61,1.57,1.57,0,0,1-1.16-.44,1.51,1.51,0,0,1-.45-1.13,10.49,10.49,0,0,1,.52-2.66l2.69-9.33h-2.44l.17-.63a7.78,7.78,0,0,0,2.94-1.44,13.38,13.38,0,0,0,2.63-3.33Z"/><path d="M702.38,669.66,699.18,681a8.88,8.88,0,0,0-.32,1.37.57.57,0,0,0,.16.42.46.46,0,0,0,.36.16,1.06,1.06,0,0,0,.58-.26,9.57,9.57,0,0,0,1.85-2.06l.57.37a11.47,11.47,0,0,1-2.58,2.82,3.45,3.45,0,0,1-2.1.85,1.52,1.52,0,0,1-1.08-.39,1.29,1.29,0,0,1-.42-1,8.23,8.23,0,0,1,.41-2L698.7,674a11.92,11.92,0,0,0,.52-2.23.79.79,0,0,0-.25-.58,1,1,0,0,0-.69-.22,11.84,11.84,0,0,0-1.46.18v-.63Zm-.21-6.4a1.52,1.52,0,0,1,1.14.47,1.62,1.62,0,0,1-1.14,2.75A1.59,1.59,0,0,1,701,666a1.61,1.61,0,0,1,0-2.28A1.52,1.52,0,0,1,702.17,663.26Z"/><path d="M719.21,674.7a9.85,9.85,0,0,1-1.28,4.78,9.7,9.7,0,0,1-3.57,3.76,8.56,8.56,0,0,1-4.44,1.38,4.85,4.85,0,0,1-3.61-1.41,5,5,0,0,1-1.39-3.65,9.61,9.61,0,0,1,1.36-4.75,10.37,10.37,0,0,1,3.64-3.77,8.52,8.52,0,0,1,4.41-1.38,4.69,4.69,0,0,1,3.51,1.4A5,5,0,0,1,719.21,674.7Zm-2.67-1.11a3.32,3.32,0,0,0-.73-2.3,2.47,2.47,0,0,0-1.9-.8q-2.37,0-4.36,3.4a13.28,13.28,0,0,0-2,6.74,3.31,3.31,0,0,0,.78,2.36,2.55,2.55,0,0,0,1.95.83q2.26,0,4.26-3.38A13.31,13.31,0,0,0,716.54,673.59Z"/><path d="M727.74,669.66,725.59,677a34.51,34.51,0,0,1,4.62-5.92,4.79,4.79,0,0,1,3.09-1.41,1.78,1.78,0,0,1,1.33.53,1.9,1.9,0,0,1,.52,1.38,9.85,9.85,0,0,1-.47,2.58l-2,6.79a7.78,7.78,0,0,0-.34,1.43.55.55,0,0,0,.13.38.34.34,0,0,0,.27.15.82.82,0,0,0,.47-.21,10.91,10.91,0,0,0,1.87-2.06l.5.31a12.44,12.44,0,0,1-2.84,3.06,3.06,3.06,0,0,1-1.68.62,1.29,1.29,0,0,1-1-.36,1.34,1.34,0,0,1-.35-1,11.05,11.05,0,0,1,.55-2.66l1.87-6.48a7.38,7.38,0,0,0,.35-1.88.71.71,0,0,0-.21-.53.73.73,0,0,0-.51-.2,2.13,2.13,0,0,0-1.08.39,9.42,9.42,0,0,0-2.48,2.39,33.89,33.89,0,0,0-2.73,4.26,15.87,15.87,0,0,0-1.25,3l-.81,2.66h-2.42L724,674.15a12.62,12.62,0,0,0,.52-2.19.82.82,0,0,0-.28-.62,1,1,0,0,0-.7-.27c-.13,0-.36,0-.68.07l-.61.09-.1-.58Z"/><path d="M748.93,669.66l-1,4.94h-.59a5.14,5.14,0,0,0-.92-3.14,2.64,2.64,0,0,0-2.08-1,2.27,2.27,0,0,0-1.59.54,1.77,1.77,0,0,0-.59,1.33,2.24,2.24,0,0,0,.24,1,6.66,6.66,0,0,0,1,1.36,19.59,19.59,0,0,1,2.71,3.44,4.73,4.73,0,0,1,.61,2.2,4,4,0,0,1-1.39,3,5,5,0,0,1-3.52,1.29,8.11,8.11,0,0,1-2.68-.54,2.63,2.63,0,0,0-.82-.2,1.19,1.19,0,0,0-1.1.74h-.59l1-5.22h.6a5.48,5.48,0,0,0,1,3.47,3.21,3.21,0,0,0,2.52,1,2.69,2.69,0,0,0,1.94-.68,2.24,2.24,0,0,0,.72-1.68,2.84,2.84,0,0,0-.26-1.2,14,14,0,0,0-1.9-2.67,14.54,14.54,0,0,1-1.85-2.56,4,4,0,0,1-.41-1.71,3.52,3.52,0,0,1,1.14-2.65,4.09,4.09,0,0,1,2.92-1.07,4.64,4.64,0,0,1,.94.08,10,10,0,0,1,1,.36,4,4,0,0,0,1.1.31,1.34,1.34,0,0,0,1.16-.75Z"/><rect class="cls-16" x="922.94" y="77.49" width="137.65" height="85.35"/><rect class="cls-16" x="1085.88" y="312.84" width="137.65" height="85.35"/><path d="M1178.06,107.67l-1.63,7.08h-.58l-.06-1.77a6.69,6.69,0,0,0-.37-1.73,3.76,3.76,0,0,0-.87-1.31,4.1,4.1,0,0,0-1.47-.87,5.86,5.86,0,0,0-2-.32,8.33,8.33,0,0,0-5,1.58,13.29,13.29,0,0,0-4.32,5.69,15.56,15.56,0,0,0-1.29,6.14,6.91,6.91,0,0,0,1.86,5.07,6.43,6.43,0,0,0,4.81,1.89,7.83,7.83,0,0,0,4-1,10.41,10.41,0,0,0,3.25-3.08h.76a12.73,12.73,0,0,1-3.93,4.15,10.65,10.65,0,0,1-9.91.21,7.48,7.48,0,0,1-3.15-3.15,9.14,9.14,0,0,1-1.08-4.36,14.55,14.55,0,0,1,7.18-12.28,13.36,13.36,0,0,1,6.75-1.94,10.24,10.24,0,0,1,3.57.76,4,4,0,0,0,1.26.32,1.37,1.37,0,0,0,.68-.16,4.74,4.74,0,0,0,1-.92Z"/><path d="M1192.11,120.48a10,10,0,0,1-1.28,4.79,9.68,9.68,0,0,1-3.57,3.75,8.55,8.55,0,0,1-4.45,1.39,4.84,4.84,0,0,1-3.6-1.41,5,5,0,0,1-1.39-3.65,9.48,9.48,0,0,1,1.36-4.75,10.29,10.29,0,0,1,3.64-3.77,8.45,8.45,0,0,1,4.41-1.39,4.71,4.71,0,0,1,3.5,1.4A5,5,0,0,1,1192.11,120.48Zm-2.68-1.11a3.25,3.25,0,0,0-.73-2.29,2.46,2.46,0,0,0-1.89-.8q-2.37,0-4.36,3.39a13.21,13.21,0,0,0-2,6.74,3.34,3.34,0,0,0,.77,2.36,2.55,2.55,0,0,0,2,.84q2.28,0,4.27-3.38A13.43,13.43,0,0,0,1189.43,119.37Z"/><path d="M1200.63,115.44l-2.14,7.33a34.31,34.31,0,0,1,4.62-5.91,4.73,4.73,0,0,1,3.08-1.42,1.8,1.8,0,0,1,1.33.53,1.91,1.91,0,0,1,.53,1.39,10,10,0,0,1-.47,2.58l-2,6.78a8.82,8.82,0,0,0-.34,1.43.58.58,0,0,0,.13.38.36.36,0,0,0,.28.16.8.8,0,0,0,.46-.21,10.39,10.39,0,0,0,1.87-2.07l.5.31a12.08,12.08,0,0,1-2.83,3.06,3.11,3.11,0,0,1-1.68.63,1.27,1.27,0,0,1-1-.36,1.32,1.32,0,0,1-.35-1,11.5,11.5,0,0,1,.54-2.66l1.87-6.47a7.18,7.18,0,0,0,.36-1.89.69.69,0,0,0-.21-.52.69.69,0,0,0-.52-.2,2.23,2.23,0,0,0-1.08.38,9.79,9.79,0,0,0-2.48,2.4,32.84,32.84,0,0,0-2.72,4.26,15,15,0,0,0-1.26,3l-.8,2.65H1194l2.93-10.08a14.29,14.29,0,0,0,.52-2.19.84.84,0,0,0-.28-.62,1,1,0,0,0-.71-.27,6.51,6.51,0,0,0-.67.06l-.61.1-.1-.58Z"/><path d="M1219.63,115.83l-.29,1.06H1217l-1.77,7a42.93,42.93,0,0,1-2.37,7.21,12.43,12.43,0,0,1-3.64,5,5.12,5.12,0,0,1-3,1.05,2.47,2.47,0,0,1-1.64-.58,1.27,1.27,0,0,1-.5-1,1.2,1.2,0,0,1,.41-.9,1.43,1.43,0,0,1,1-.37,1,1,0,0,1,.73.27.82.82,0,0,1,.3.63.93.93,0,0,1-.34.66c-.17.15-.26.26-.26.34a.27.27,0,0,0,.11.22.71.71,0,0,0,.45.12,3,3,0,0,0,1.46-.44,4.08,4.08,0,0,0,1.36-1.3,9.47,9.47,0,0,0,1.13-2.49c.15-.45.56-1.94,1.21-4.46l2.81-10.91h-2.81l.23-1.06a6.2,6.2,0,0,0,1.87-.19,2.21,2.21,0,0,0,1-.71,10.06,10.06,0,0,0,1.15-2,16.29,16.29,0,0,1,1.82-3,8.79,8.79,0,0,1,2.51-2.15,5.16,5.16,0,0,1,2.47-.72,3,3,0,0,1,2,.62,1.78,1.78,0,0,1,.74,1.35,1.32,1.32,0,0,1-.37,1,1.24,1.24,0,0,1-1,.38,1.14,1.14,0,0,1-.82-.29.93.93,0,0,1-.31-.69,1.43,1.43,0,0,1,.21-.64,1.43,1.43,0,0,0,.21-.5.39.39,0,0,0-.15-.34,1,1,0,0,0-.61-.16,2.85,2.85,0,0,0-1.82.64,7.27,7.27,0,0,0-1.93,2.68q-.43.94-1.6,4.72Z"/><path d="M1228.83,107.11l-5.51,19.18a9.78,9.78,0,0,0-.4,1.75.55.55,0,0,0,.15.4.5.5,0,0,0,.38.17,1.16,1.16,0,0,0,.66-.28,9,9,0,0,0,1.76-2l.48.5a11.91,11.91,0,0,1-2.82,3,3.34,3.34,0,0,1-1.8.61,1.4,1.4,0,0,1-1-.42,1.36,1.36,0,0,1-.41-1,11,11,0,0,1,.52-2.38l4.36-15.11a15.58,15.58,0,0,0,.54-2.13.81.81,0,0,0-.31-.64,1.52,1.52,0,0,0-1-.25,8,8,0,0,0-1.13.12V108Z"/><path d="M1235.78,115.44l-3.19,11.3a8.24,8.24,0,0,0-.33,1.37.61.61,0,0,0,.16.42.5.5,0,0,0,.36.16,1.06,1.06,0,0,0,.58-.26,9.57,9.57,0,0,0,1.85-2.06l.57.37a11.63,11.63,0,0,1-2.58,2.82,3.45,3.45,0,0,1-2.1.85A1.52,1.52,0,0,1,1230,130a1.36,1.36,0,0,1-.41-1,8.25,8.25,0,0,1,.4-2l2.09-7.22a11.23,11.23,0,0,0,.52-2.22.73.73,0,0,0-.25-.58,1,1,0,0,0-.69-.23,11.84,11.84,0,0,0-1.46.18v-.63Zm-.21-6.4a1.6,1.6,0,0,1,1.61,1.62,1.64,1.64,0,0,1-1.61,1.61,1.56,1.56,0,0,1-1.14-.48,1.51,1.51,0,0,1-.47-1.13,1.55,1.55,0,0,1,.46-1.15A1.58,1.58,0,0,1,1235.57,109Z"/><path d="M1250.1,126.51a12.33,12.33,0,0,1-3.38,3,7.34,7.34,0,0,1-3.61.94,4.79,4.79,0,0,1-3.57-1.29,4.7,4.7,0,0,1-1.28-3.46,9.57,9.57,0,0,1,1.38-4.85,11.17,11.17,0,0,1,3.7-3.88,8.49,8.49,0,0,1,4.57-1.49,4.06,4.06,0,0,1,2.63.73,2.27,2.27,0,0,1,.87,1.8,2.52,2.52,0,0,1-.62,1.71,1.4,1.4,0,0,1-1.11.55,1.13,1.13,0,0,1-.83-.33,1.06,1.06,0,0,1-.33-.8,1.31,1.31,0,0,1,.12-.56,2.37,2.37,0,0,1,.5-.63,2.13,2.13,0,0,0,.46-.52.7.7,0,0,0-.22-.9,2.26,2.26,0,0,0-1.32-.32,5.32,5.32,0,0,0-3.13,1.11,9,9,0,0,0-2.64,3.16,10.47,10.47,0,0,0-1.32,5,3.57,3.57,0,0,0,.93,2.6,3.38,3.38,0,0,0,2.55,1,5.39,5.39,0,0,0,2.45-.62,10.25,10.25,0,0,0,2.73-2.25Z"/><path d="M1260.58,111.45l-1.26,4.38h2.53l-.28,1h-2.51l-2.77,9.51a9.53,9.53,0,0,0-.45,2,.6.6,0,0,0,.13.42.37.37,0,0,0,.3.15,1.89,1.89,0,0,0,1.07-.57,19.33,19.33,0,0,0,1.72-2l.53.4a11.48,11.48,0,0,1-2.8,3.05,3.2,3.2,0,0,1-1.82.61,1.61,1.61,0,0,1-1.16-.44,1.54,1.54,0,0,1-.45-1.14,10.91,10.91,0,0,1,.51-2.66l2.69-9.33h-2.43l.16-.63a7.83,7.83,0,0,0,3-1.44,13.72,13.72,0,0,0,2.63-3.32Z"/><path d="M1159,170.12l1.8-18.19c.09-.92.13-1.55.13-1.87a1.57,1.57,0,0,0-.54-1.21,2.52,2.52,0,0,0-1.7-.48h-.58l.16-.6h8.62l-.17.6a4.79,4.79,0,0,0-1.93.29,1.85,1.85,0,0,0-.83.94,9.11,9.11,0,0,0-.34,2l-1.29,13,8.53-11.64a21.17,21.17,0,0,0,1.74-2.63,2,2,0,0,0,.24-.87,1,1,0,0,0-.37-.75,2.37,2.37,0,0,0-1.39-.39l.2-.6h6.57l-.16.6a3.31,3.31,0,0,0-1.26.31,6.54,6.54,0,0,0-1.76,1.27,31.36,31.36,0,0,0-2.78,3.45l-12.31,16.72Z"/><path d="M1174.38,163.55a9.39,9.39,0,0,0-.12,1.34,3.31,3.31,0,0,0,1,2.44,3.39,3.39,0,0,0,2.47,1,5.42,5.42,0,0,0,2.23-.48,18.78,18.78,0,0,0,3.18-2.1l.34.46q-3.82,3.79-7.29,3.79a4.27,4.27,0,0,1-3.54-1.48,5.13,5.13,0,0,1-1.19-3.27,9.66,9.66,0,0,1,1.48-4.92,11.17,11.17,0,0,1,3.72-3.9,8.61,8.61,0,0,1,4.61-1.4,3.88,3.88,0,0,1,2.53.69,2.1,2.1,0,0,1,.82,1.65,3.87,3.87,0,0,1-1.06,2.56,9.9,9.9,0,0,1-4.13,2.58A23.05,23.05,0,0,1,1174.38,163.55Zm.11-.79a13.46,13.46,0,0,0,3.88-.93,7.9,7.9,0,0,0,3-2.12,3.85,3.85,0,0,0,1-2.35,1.44,1.44,0,0,0-.43-1.09,1.66,1.66,0,0,0-1.22-.42,5.26,5.26,0,0,0-3.48,1.75A10.46,10.46,0,0,0,1174.49,162.76Z"/><path d="M1194.78,146.71l-4.53,15.65a32.35,32.35,0,0,1,4.58-5.87A4.84,4.84,0,0,1,1198,155a1.76,1.76,0,0,1,1.29.53,2,2,0,0,1,.51,1.42,9.32,9.32,0,0,1-.45,2.58l-2,6.75c-.24.82-.37,1.27-.37,1.35a.51.51,0,0,0,.14.37.42.42,0,0,0,.32.15.82.82,0,0,0,.48-.21,9.28,9.28,0,0,0,1.82-2l.5.31a13.05,13.05,0,0,1-1.52,1.88,8.07,8.07,0,0,1-1.68,1.42,2.63,2.63,0,0,1-1.25.39,1.31,1.31,0,0,1-1-.38,1.29,1.29,0,0,1-.38-1A11.88,11.88,0,0,1,1195,166l1.86-6.44a7.5,7.5,0,0,0,.35-1.9.7.7,0,0,0-.2-.52.73.73,0,0,0-.52-.19,2.2,2.2,0,0,0-1.07.35,10.72,10.72,0,0,0-2.53,2.52q-.39.49-2.58,4a12,12,0,0,0-1.11,2.46l-1,3.3h-2.42l5.3-18.43.57-2a1,1,0,0,0-.35-.74,1.2,1.2,0,0,0-.84-.32,5.5,5.5,0,0,0-.89.1l-.34,0v-.62Z"/><path d="M1209.18,155l-3.19,11.3a8.88,8.88,0,0,0-.32,1.37.6.6,0,0,0,.15.42.5.5,0,0,0,.36.16,1,1,0,0,0,.58-.26,9.33,9.33,0,0,0,1.86-2.06l.56.37a11.63,11.63,0,0,1-2.58,2.82,3.45,3.45,0,0,1-2.09.85,1.52,1.52,0,0,1-1.08-.39,1.32,1.32,0,0,1-.42-1,8.22,8.22,0,0,1,.4-2l2.1-7.22a11.69,11.69,0,0,0,.51-2.22.73.73,0,0,0-.25-.58,1,1,0,0,0-.68-.22,11,11,0,0,0-1.47.17v-.63Zm-.21-6.4a1.59,1.59,0,0,1,1.15.47,1.55,1.55,0,0,1,.46,1.15,1.51,1.51,0,0,1-.47,1.13,1.56,1.56,0,0,1-1.14.48,1.64,1.64,0,0,1-1.61-1.61,1.6,1.6,0,0,1,1.61-1.62Z"/><path d="M1223.51,166.11a12.35,12.35,0,0,1-3.39,3,7.34,7.34,0,0,1-3.61.94,4.79,4.79,0,0,1-3.56-1.29,4.67,4.67,0,0,1-1.29-3.46,9.57,9.57,0,0,1,1.38-4.85,11.29,11.29,0,0,1,3.71-3.88,8.47,8.47,0,0,1,4.57-1.49,4,4,0,0,1,2.62.73,2.27,2.27,0,0,1,.87,1.8,2.51,2.51,0,0,1-.61,1.71,1.4,1.4,0,0,1-1.11.55,1.12,1.12,0,0,1-.83-.33,1.06,1.06,0,0,1-.33-.8,1.31,1.31,0,0,1,.12-.56,2.37,2.37,0,0,1,.5-.63,2.71,2.71,0,0,0,.46-.52.81.81,0,0,0,.08-.34.67.67,0,0,0-.31-.56,2.26,2.26,0,0,0-1.32-.32,5.36,5.36,0,0,0-3.13,1.11,9,9,0,0,0-2.64,3.16,10.47,10.47,0,0,0-1.32,5,3.53,3.53,0,0,0,.94,2.6,3.38,3.38,0,0,0,2.54,1,5.4,5.4,0,0,0,2.46-.62,10.41,10.41,0,0,0,2.73-2.25Z"/><path d="M1235.22,146.71l-5.51,19.18a9.78,9.78,0,0,0-.4,1.75.55.55,0,0,0,.15.4.5.5,0,0,0,.38.17,1.16,1.16,0,0,0,.66-.28,8.72,8.72,0,0,0,1.76-2l.48.5a11.91,11.91,0,0,1-2.82,3,3.31,3.31,0,0,1-1.8.61,1.4,1.4,0,0,1-1-.42,1.35,1.35,0,0,1-.41-1,11,11,0,0,1,.52-2.39l4.36-15.11a15.58,15.58,0,0,0,.54-2.13.81.81,0,0,0-.31-.64,1.52,1.52,0,0,0-1-.25,8,8,0,0,0-1.13.12v-.6Z"/><path d="M1238.51,163.55a9.18,9.18,0,0,0-.11,1.34,3.3,3.3,0,0,0,1,2.44,3.39,3.39,0,0,0,2.47,1,5.42,5.42,0,0,0,2.23-.48,18.78,18.78,0,0,0,3.18-2.1l.34.46c-2.55,2.53-5,3.79-7.28,3.79a4.29,4.29,0,0,1-3.55-1.48,5.13,5.13,0,0,1-1.19-3.27,9.66,9.66,0,0,1,1.48-4.92,11.17,11.17,0,0,1,3.72-3.9,8.64,8.64,0,0,1,4.61-1.4,3.88,3.88,0,0,1,2.53.69,2.1,2.1,0,0,1,.82,1.65,3.87,3.87,0,0,1-1.06,2.56,9.9,9.9,0,0,1-4.13,2.58A23.05,23.05,0,0,1,1238.51,163.55Zm.11-.79a13.46,13.46,0,0,0,3.88-.93,7.9,7.9,0,0,0,3-2.12,3.85,3.85,0,0,0,1-2.35,1.44,1.44,0,0,0-.43-1.09,1.65,1.65,0,0,0-1.21-.42,5.26,5.26,0,0,0-3.49,1.75A10.46,10.46,0,0,0,1238.62,162.76Z"/><path d="M1261.2,155l-1,5h-.59a5.12,5.12,0,0,0-.92-3.14,2.62,2.62,0,0,0-2.08-1,2.26,2.26,0,0,0-1.59.55,1.76,1.76,0,0,0-.59,1.32,2.25,2.25,0,0,0,.24,1,6.3,6.3,0,0,0,1,1.35,19.93,19.93,0,0,1,2.71,3.45,4.67,4.67,0,0,1,.61,2.19,3.94,3.94,0,0,1-1.39,3,5,5,0,0,1-3.52,1.3,7.9,7.9,0,0,1-2.68-.55,2.56,2.56,0,0,0-.82-.19,1.19,1.19,0,0,0-1.1.74h-.59l1-5.22h.6a5.45,5.45,0,0,0,1,3.46,3.21,3.21,0,0,0,2.52,1,2.73,2.73,0,0,0,1.94-.68,2.24,2.24,0,0,0,.71-1.69,2.76,2.76,0,0,0-.25-1.19,13.71,13.71,0,0,0-1.9-2.68,13.83,13.83,0,0,1-1.85-2.56,4,4,0,0,1-.41-1.71,3.5,3.5,0,0,1,1.14-2.64,4.05,4.05,0,0,1,2.92-1.08,5.28,5.28,0,0,1,.93.08c.15,0,.51.16,1.06.36a4.15,4.15,0,0,0,1.1.32,1.35,1.35,0,0,0,1.16-.76Z"/><path class="cls-12" d="M1079.94,124.91c13.4-1.7,32.63-1.24,49.12,10.46,5.9,4.19,18.84,15.24,28.23,57.89a289.06,289.06,0,0,1,5.62,85.61"/><path class="cls-15" d="M1083.88,139.54a15,15,0,1,1,11.63-17.81A15,15,0,0,1,1083.88,139.54Z"/><path d="M1084.29,141.49a17,17,0,1,0-20.17-13.18,17,17,0,0,0,20.17,13.18C1093.49,139.57,1075.1,143.42,1084.29,141.49Zm-6.17-29.43A13,13,0,1,1,1068,127.49a13,13,0,0,1,10.09-15.43Z"/><polygon points="1159.41 306.9 1147.87 265.49 1162.93 276.75 1180.17 269.26 1159.41 306.9"/><path class="cls-12" d="M993.38,178.5a320.15,320.15,0,0,1,7.21,103c-3.78,40.37-7.32,78.17-34.49,107.61-32.28,35-80.86,39.68-111.77,38.56"/><path class="cls-15" d="M979,183.07a15,15,0,1,1,18.3,10.84A15,15,0,0,1,979,183.07Z"/><path d="M977,183.57a17,17,0,1,0,12.28-20.73A17.06,17.06,0,0,0,977,183.57Zm29.14-7.46a13,13,0,1,1-15.86-9.4,13.06,13.06,0,0,1,15.86,9.4Z"/><polygon points="826.24 424.79 867.37 412.28 856.46 427.6 864.35 444.66 826.24 424.79"/><path d="M837.42,273.63l6.75,17.13L847.83,278a9.72,9.72,0,0,0,.45-2.45,1.15,1.15,0,0,0-.42-.94,2.65,2.65,0,0,0-1.56-.33l-.4,0,.18-.6h7l-.19.6a4,4,0,0,0-1.63.22,2.71,2.71,0,0,0-1.13.87,10.2,10.2,0,0,0-1,2.65L844,296h-.58l-7.26-18.43-3.89,13.61a9.54,9.54,0,0,0-.43,2.37,1.12,1.12,0,0,0,.39.93,4.08,4.08,0,0,0,1.88.43l-.16.59h-6.86l.22-.59a5.54,5.54,0,0,0,1.73-.23,2.27,2.27,0,0,0,1-.76,11.26,11.26,0,0,0,1-2.74L835.36,276a3.61,3.61,0,0,0-1.35-1.33,5.54,5.54,0,0,0-2.23-.41l.18-.6Z"/><path d="M865.23,285.94a9.92,9.92,0,0,1-1.28,4.79,9.61,9.61,0,0,1-3.57,3.75,8.49,8.49,0,0,1-4.44,1.39,4.85,4.85,0,0,1-3.61-1.41,5,5,0,0,1-1.39-3.65,9.58,9.58,0,0,1,1.36-4.75,10.29,10.29,0,0,1,3.64-3.77,8.45,8.45,0,0,1,4.41-1.39,4.73,4.73,0,0,1,3.51,1.4A5,5,0,0,1,865.23,285.94Zm-2.67-1.11a3.3,3.3,0,0,0-.73-2.29,2.44,2.44,0,0,0-1.9-.8q-2.37,0-4.36,3.39a13.3,13.3,0,0,0-2,6.74,3.31,3.31,0,0,0,.78,2.36,2.51,2.51,0,0,0,1.95.83q2.27,0,4.26-3.37A13.34,13.34,0,0,0,862.56,284.83Z"/><path d="M873.76,280.9l-2.14,7.33a33.5,33.5,0,0,1,4.61-5.91,4.75,4.75,0,0,1,3.09-1.42,1.82,1.82,0,0,1,1.33.53,1.9,1.9,0,0,1,.52,1.39,10,10,0,0,1-.47,2.58l-2,6.78a7.78,7.78,0,0,0-.34,1.43.55.55,0,0,0,.13.38.37.37,0,0,0,.27.16.82.82,0,0,0,.47-.21,11,11,0,0,0,1.87-2.07l.5.31a12.09,12.09,0,0,1-2.84,3.06,3.09,3.09,0,0,1-1.67.63,1.3,1.3,0,0,1-1-.36,1.38,1.38,0,0,1-.35-1,11.14,11.14,0,0,1,.55-2.66l1.87-6.47a7.52,7.52,0,0,0,.35-1.89.7.7,0,0,0-.72-.72,2.13,2.13,0,0,0-1.08.38,9.74,9.74,0,0,0-2.48,2.39,34.84,34.84,0,0,0-2.73,4.27,15.77,15.77,0,0,0-1.25,3l-.81,2.66H867.1L870,285.4a13.44,13.44,0,0,0,.51-2.2.83.83,0,0,0-.28-.62,1,1,0,0,0-.7-.26,6.41,6.41,0,0,0-.68.06l-.61.1-.1-.58Z"/><path d="M892.85,287.25l-.66,2.14h-8.35l.67-2.14Z"/><path d="M906.71,292a12.47,12.47,0,0,1-3.38,3,7.48,7.48,0,0,1-3.61.94,4.79,4.79,0,0,1-3.57-1.29,4.66,4.66,0,0,1-1.28-3.46,9.65,9.65,0,0,1,1.37-4.85,11.2,11.2,0,0,1,3.71-3.88,8.47,8.47,0,0,1,4.57-1.49,4,4,0,0,1,2.62.73,2.27,2.27,0,0,1,.87,1.8,2.51,2.51,0,0,1-.61,1.71,1.4,1.4,0,0,1-1.11.55,1.13,1.13,0,0,1-.83-.33,1.06,1.06,0,0,1-.33-.8,1.35,1.35,0,0,1,.12-.57,2.53,2.53,0,0,1,.5-.62,2.38,2.38,0,0,0,.46-.52.81.81,0,0,0,.08-.34A.67.67,0,0,0,906,282a2.26,2.26,0,0,0-1.32-.32,5.31,5.31,0,0,0-3.12,1.11,9.13,9.13,0,0,0-2.65,3.16,10.44,10.44,0,0,0-1.32,5,3.55,3.55,0,0,0,.94,2.6,3.38,3.38,0,0,0,2.54,1,5.4,5.4,0,0,0,2.46-.62,10.41,10.41,0,0,0,2.73-2.25Z"/><path d="M923.87,285.94a10,10,0,0,1-1.28,4.79,9.75,9.75,0,0,1-3.57,3.75,8.55,8.55,0,0,1-4.45,1.39,4.84,4.84,0,0,1-3.6-1.41,5,5,0,0,1-1.39-3.65,9.48,9.48,0,0,1,1.36-4.75,10.29,10.29,0,0,1,3.64-3.77A8.45,8.45,0,0,1,919,280.9a4.71,4.71,0,0,1,3.5,1.4A5,5,0,0,1,923.87,285.94Zm-2.68-1.11a3.25,3.25,0,0,0-.73-2.29,2.43,2.43,0,0,0-1.89-.8q-2.37,0-4.36,3.39a13.21,13.21,0,0,0-2,6.74,3.35,3.35,0,0,0,.77,2.36,2.54,2.54,0,0,0,2,.83q2.28,0,4.27-3.37A13.43,13.43,0,0,0,921.19,284.83Z"/><path d="M932.39,280.9l-2.14,7.33a33.9,33.9,0,0,1,4.62-5.91A4.73,4.73,0,0,1,938,280.9a1.8,1.8,0,0,1,1.33.53,1.91,1.91,0,0,1,.53,1.39,10,10,0,0,1-.47,2.58l-2,6.78a8.82,8.82,0,0,0-.34,1.43.6.6,0,0,0,.13.38.39.39,0,0,0,.28.16.8.8,0,0,0,.46-.21,10.68,10.68,0,0,0,1.87-2.07l.5.31a12.08,12.08,0,0,1-2.83,3.06,3.14,3.14,0,0,1-1.68.63,1.27,1.27,0,0,1-1-.36,1.34,1.34,0,0,1-.35-1,11.5,11.5,0,0,1,.54-2.66l1.87-6.47a7.18,7.18,0,0,0,.36-1.89A.69.69,0,0,0,937,283a.69.69,0,0,0-.52-.2,2.13,2.13,0,0,0-1.08.38,9.91,9.91,0,0,0-2.48,2.39,33.74,33.74,0,0,0-2.72,4.27,15.17,15.17,0,0,0-1.26,3l-.8,2.66h-2.42l2.93-10.08a14,14,0,0,0,.52-2.2.87.87,0,0,0-.28-.62,1,1,0,0,0-.71-.26,6.51,6.51,0,0,0-.67.06l-.61.1-.1-.58Z"/><path d="M951.39,281.29l-.29,1.06h-2.35l-1.77,7a42.46,42.46,0,0,1-2.37,7.2,12.48,12.48,0,0,1-3.64,5,5.11,5.11,0,0,1-3,1,2.42,2.42,0,0,1-1.64-.58,1.24,1.24,0,0,1-.5-1,1.2,1.2,0,0,1,.41-.9,1.44,1.44,0,0,1,1-.38,1.05,1.05,0,0,1,.73.28.82.82,0,0,1,.3.63.93.93,0,0,1-.34.66c-.17.15-.26.26-.26.34a.27.27,0,0,0,.11.22.71.71,0,0,0,.45.11,2.93,2.93,0,0,0,1.46-.43,4.08,4.08,0,0,0,1.36-1.3,9.47,9.47,0,0,0,1.13-2.49c.15-.45.56-1.94,1.21-4.46l2.81-10.91h-2.81l.23-1.06a6.2,6.2,0,0,0,1.87-.19,2.21,2.21,0,0,0,1-.71,10.22,10.22,0,0,0,1.15-2,16.5,16.5,0,0,1,1.82-3,8.63,8.63,0,0,1,2.51-2.15,5.16,5.16,0,0,1,2.47-.72,3,3,0,0,1,2,.62,1.77,1.77,0,0,1,.74,1.35,1.32,1.32,0,0,1-.37.95,1.28,1.28,0,0,1-.95.38,1.13,1.13,0,0,1-.82-.29.93.93,0,0,1-.31-.69,1.43,1.43,0,0,1,.21-.64,1.43,1.43,0,0,0,.21-.5.39.39,0,0,0-.15-.34,1,1,0,0,0-.61-.16,2.85,2.85,0,0,0-1.82.64,7.27,7.27,0,0,0-1.93,2.68q-.43.94-1.6,4.72Z"/><path d="M960.59,272.57l-5.51,19.17a10,10,0,0,0-.4,1.76.55.55,0,0,0,.15.4.49.49,0,0,0,.38.16,1.13,1.13,0,0,0,.66-.27,8.6,8.6,0,0,0,1.76-2.05l.48.5a11.81,11.81,0,0,1-2.82,3,3.31,3.31,0,0,1-1.8.61,1.4,1.4,0,0,1-1-.42,1.36,1.36,0,0,1-.41-1,11,11,0,0,1,.52-2.38L956.93,277a15.25,15.25,0,0,0,.54-2.12.81.81,0,0,0-.31-.64,1.46,1.46,0,0,0-.95-.25,9.37,9.37,0,0,0-1.13.11v-.59Z"/><path d="M967.54,280.9l-3.19,11.3a8.23,8.23,0,0,0-.33,1.36.57.57,0,0,0,.16.42.48.48,0,0,0,.36.17,1,1,0,0,0,.58-.26,9.65,9.65,0,0,0,1.85-2.07l.57.38A11.63,11.63,0,0,1,965,295a3.51,3.51,0,0,1-2.1.85,1.45,1.45,0,0,1-1.07-.4,1.29,1.29,0,0,1-.42-1,8.25,8.25,0,0,1,.4-2l2.09-7.22a11.23,11.23,0,0,0,.52-2.22.73.73,0,0,0-.25-.58,1,1,0,0,0-.69-.23,11.84,11.84,0,0,0-1.46.18v-.63Zm-.21-6.4a1.61,1.61,0,0,1,1.13,2.75,1.52,1.52,0,0,1-1.13.48,1.56,1.56,0,0,1-1.14-.48,1.59,1.59,0,0,1-.47-1.14,1.55,1.55,0,0,1,.46-1.14A1.59,1.59,0,0,1,967.33,274.5Z"/><path d="M981.86,292a12.33,12.33,0,0,1-3.38,3,7.45,7.45,0,0,1-3.61.94,4.79,4.79,0,0,1-3.57-1.29,4.7,4.7,0,0,1-1.28-3.46,9.57,9.57,0,0,1,1.38-4.85,11.09,11.09,0,0,1,3.7-3.88,8.49,8.49,0,0,1,4.57-1.49,4,4,0,0,1,2.63.73,2.27,2.27,0,0,1,.87,1.8,2.52,2.52,0,0,1-.62,1.71,1.4,1.4,0,0,1-1.11.55,1.13,1.13,0,0,1-.83-.33,1.06,1.06,0,0,1-.33-.8,1.35,1.35,0,0,1,.12-.57,2.53,2.53,0,0,1,.5-.62,2.13,2.13,0,0,0,.46-.52.7.7,0,0,0-.22-.9,2.28,2.28,0,0,0-1.32-.32,5.32,5.32,0,0,0-3.13,1.11,9,9,0,0,0-2.64,3.16,10.44,10.44,0,0,0-1.32,5,3.58,3.58,0,0,0,.93,2.6,3.38,3.38,0,0,0,2.55,1,5.39,5.39,0,0,0,2.45-.62,10.41,10.41,0,0,0,2.73-2.25Z"/><path d="M992.33,276.9l-1.25,4.39h2.53l-.28,1h-2.51l-2.77,9.51a9.53,9.53,0,0,0-.45,2,.6.6,0,0,0,.13.42.36.36,0,0,0,.3.14,1.86,1.86,0,0,0,1.07-.56,19.33,19.33,0,0,0,1.72-2l.53.4a11.48,11.48,0,0,1-2.8,3.05,3.2,3.2,0,0,1-1.82.61,1.59,1.59,0,0,1-1.16-.44,1.54,1.54,0,0,1-.45-1.14,10.83,10.83,0,0,1,.51-2.66l2.69-9.33h-2.43l.16-.63a7.9,7.9,0,0,0,3-1.44,13.61,13.61,0,0,0,2.63-3.33Z"/><path d="M861.4,335.58l1.8-18.19c.09-.92.13-1.55.13-1.87a1.56,1.56,0,0,0-.54-1.21,2.5,2.5,0,0,0-1.7-.48h-.58l.16-.6h8.62l-.17.6a4.79,4.79,0,0,0-1.93.29,1.91,1.91,0,0,0-.83.93,9.4,9.4,0,0,0-.34,2l-1.29,13,8.53-11.63a21.17,21.17,0,0,0,1.74-2.63,2,2,0,0,0,.24-.87,1,1,0,0,0-.37-.75,2.37,2.37,0,0,0-1.39-.39l.2-.6h6.57l-.16.6a3.14,3.14,0,0,0-1.26.31,6.33,6.33,0,0,0-1.76,1.27,31.36,31.36,0,0,0-2.78,3.45L862,335.58Z"/><path d="M876.82,329a9.08,9.08,0,0,0-.11,1.34,3.3,3.3,0,0,0,1,2.44,3.38,3.38,0,0,0,2.47,1,5.41,5.41,0,0,0,2.23-.47,18.78,18.78,0,0,0,3.18-2.1l.34.46c-2.55,2.53-5,3.79-7.28,3.79a4.29,4.29,0,0,1-3.55-1.48,5.13,5.13,0,0,1-1.19-3.27,9.66,9.66,0,0,1,1.48-4.92,11.29,11.29,0,0,1,3.72-3.91,8.62,8.62,0,0,1,4.61-1.39,3.88,3.88,0,0,1,2.53.69,2.08,2.08,0,0,1,.82,1.65A3.87,3.87,0,0,1,886,325.4,9.92,9.92,0,0,1,881.9,328,23.29,23.29,0,0,1,876.82,329Zm.11-.79a13.59,13.59,0,0,0,3.89-.94,7.73,7.73,0,0,0,3-2.12,3.81,3.81,0,0,0,1-2.34,1.46,1.46,0,0,0-.43-1.1,1.69,1.69,0,0,0-1.21-.41,5.28,5.28,0,0,0-3.49,1.74A10.55,10.55,0,0,0,876.93,328.22Z"/><path d="M897.22,312.17l-4.53,15.65a32.81,32.81,0,0,1,4.58-5.87,4.84,4.84,0,0,1,3.14-1.45,1.76,1.76,0,0,1,1.29.53,2,2,0,0,1,.51,1.42,9.32,9.32,0,0,1-.45,2.58l-2,6.75a11.86,11.86,0,0,0-.37,1.35.51.51,0,0,0,.13.37.42.42,0,0,0,.32.15.82.82,0,0,0,.48-.21,9.28,9.28,0,0,0,1.82-2l.5.31a12.92,12.92,0,0,1-1.52,1.88,7.67,7.67,0,0,1-1.68,1.41,2.55,2.55,0,0,1-1.25.4,1.3,1.3,0,0,1-1.35-1.35,11.88,11.88,0,0,1,.56-2.65L899.3,325a7.5,7.5,0,0,0,.35-1.9.7.7,0,0,0-.2-.52.71.71,0,0,0-.52-.19,2.2,2.2,0,0,0-1.07.35,10.72,10.72,0,0,0-2.53,2.52q-.37.49-2.58,4a12.3,12.3,0,0,0-1.11,2.47l-1,3.3h-2.42l5.31-18.43.56-2a1,1,0,0,0-.35-.74,1.16,1.16,0,0,0-.84-.32,6.55,6.55,0,0,0-.89.09l-.34.05v-.63Z"/><path d="M911.62,320.5l-3.19,11.3a8.61,8.61,0,0,0-.32,1.37.56.56,0,0,0,.15.41.51.51,0,0,0,.37.17,1.06,1.06,0,0,0,.58-.26,9.65,9.65,0,0,0,1.85-2.07l.56.38a11.8,11.8,0,0,1-2.57,2.82,3.54,3.54,0,0,1-2.1.85,1.49,1.49,0,0,1-1.08-.4,1.29,1.29,0,0,1-.42-1,8.8,8.8,0,0,1,.4-2l2.1-7.22a12.07,12.07,0,0,0,.52-2.22.76.76,0,0,0-.25-.58,1,1,0,0,0-.69-.23,11.92,11.92,0,0,0-1.47.18v-.63Zm-.21-6.4a1.62,1.62,0,0,1,0,3.23,1.52,1.52,0,0,1-1.13-.48,1.61,1.61,0,0,1,1.13-2.75Z"/><path d="M926,331.57a12.35,12.35,0,0,1-3.39,3,7.41,7.41,0,0,1-3.6.94,4.79,4.79,0,0,1-3.57-1.29,4.66,4.66,0,0,1-1.28-3.46,9.55,9.55,0,0,1,1.37-4.85,11.2,11.2,0,0,1,3.71-3.88,8.47,8.47,0,0,1,4.57-1.49,4,4,0,0,1,2.62.73,2.27,2.27,0,0,1,.87,1.8,2.51,2.51,0,0,1-.61,1.71,1.4,1.4,0,0,1-1.11.55,1.13,1.13,0,0,1-.83-.33,1.06,1.06,0,0,1-.33-.8,1.35,1.35,0,0,1,.12-.57,2.53,2.53,0,0,1,.5-.62,2.38,2.38,0,0,0,.46-.52.81.81,0,0,0,.08-.34.67.67,0,0,0-.31-.56,2.26,2.26,0,0,0-1.32-.32,5.31,5.31,0,0,0-3.12,1.11,9,9,0,0,0-2.65,3.16,10.44,10.44,0,0,0-1.32,5,3.55,3.55,0,0,0,.94,2.6,3.38,3.38,0,0,0,2.54,1,5.4,5.4,0,0,0,2.46-.62,10.41,10.41,0,0,0,2.73-2.25Z"/><path d="M937.66,312.17l-5.51,19.17a10,10,0,0,0-.4,1.76.55.55,0,0,0,.15.4.49.49,0,0,0,.38.16,1.09,1.09,0,0,0,.66-.27,8.6,8.6,0,0,0,1.76-2.05l.48.5a11.81,11.81,0,0,1-2.82,3,3.31,3.31,0,0,1-1.8.61,1.4,1.4,0,0,1-1-.42,1.36,1.36,0,0,1-.41-1,11,11,0,0,1,.52-2.38L934,316.58a16.08,16.08,0,0,0,.53-2.12.78.78,0,0,0-.31-.64,1.46,1.46,0,0,0-1-.25,9.37,9.37,0,0,0-1.13.11v-.59Z"/><path d="M941,329a10.7,10.7,0,0,0-.11,1.34,3.34,3.34,0,0,0,1,2.44,3.38,3.38,0,0,0,2.47,1,5.41,5.41,0,0,0,2.23-.47,18.78,18.78,0,0,0,3.18-2.1l.34.46c-2.55,2.53-5,3.79-7.28,3.79a4.29,4.29,0,0,1-3.55-1.48,5.13,5.13,0,0,1-1.19-3.27,9.66,9.66,0,0,1,1.48-4.92,11.29,11.29,0,0,1,3.72-3.91,8.62,8.62,0,0,1,4.61-1.39,3.88,3.88,0,0,1,2.53.69,2.08,2.08,0,0,1,.82,1.65,3.87,3.87,0,0,1-1.06,2.56A9.86,9.86,0,0,1,946,328,23.29,23.29,0,0,1,941,329Zm.11-.79a13.59,13.59,0,0,0,3.89-.94,7.73,7.73,0,0,0,3-2.12,3.81,3.81,0,0,0,1-2.34,1.46,1.46,0,0,0-.43-1.1,1.69,1.69,0,0,0-1.21-.41,5.28,5.28,0,0,0-3.49,1.74A10.55,10.55,0,0,0,941.06,328.22Z"/><path d="M963.64,320.5l-1,4.95h-.59a5.17,5.17,0,0,0-.92-3.15,2.64,2.64,0,0,0-2.08-1,2.23,2.23,0,0,0-1.59.55,1.74,1.74,0,0,0-.58,1.32,2.27,2.27,0,0,0,.23,1,7.08,7.08,0,0,0,1,1.35,19.56,19.56,0,0,1,2.71,3.45,4.67,4.67,0,0,1,.61,2.19,3.94,3.94,0,0,1-1.39,3,4.94,4.94,0,0,1-3.52,1.3,7.9,7.9,0,0,1-2.68-.55,2.56,2.56,0,0,0-.82-.19,1.17,1.17,0,0,0-1.09.74h-.6l1-5.22h.6a5.45,5.45,0,0,0,1,3.46,3.23,3.23,0,0,0,2.52,1,2.69,2.69,0,0,0,1.94-.69,2.21,2.21,0,0,0,.72-1.68,2.76,2.76,0,0,0-.26-1.19,13.28,13.28,0,0,0-1.9-2.68,14.71,14.71,0,0,1-1.85-2.56,4,4,0,0,1-.41-1.71,3.5,3.5,0,0,1,1.14-2.64,4.05,4.05,0,0,1,2.92-1.08,5.4,5.4,0,0,1,.94.08,9.26,9.26,0,0,1,1,.36,4.15,4.15,0,0,0,1.1.32,1.36,1.36,0,0,0,1.16-.76Z"/><ellipse class="cls-16" cx="279" cy="400.64" rx="274.5" ry="241"/><line class="cls-17" x1="826.24" y1="132.67" x2="901.76" y2="132.67"/><polygon points="922.94 132.68 893.09 144.87 900.18 132.68 893.09 120.48 922.94 132.68"/><path class="cls-12" d="M1165.73,418.29c2.91,23.83,3.12,64.07-20.44,101.08a145.35,145.35,0,0,1-33.17,36c-32.23,25-67.15,30.7-103.06,34.59a1142.06,1142.06,0,0,1-153.18,6"/><path class="cls-15" d="M1151,421.55A15,15,0,1,1,1168.2,434,15,15,0,0,1,1151,421.55Z"/><path d="M1149,421.87a17,17,0,1,0,14.1-19.54,17.06,17.06,0,0,0-14.1,19.54Zm29.69-4.8a13,13,0,1,1-15-10.79,13,13,0,0,1,15,10.79Z"/><polygon points="827.65 594.9 867.99 580.03 857.98 595.96 866.86 612.53 827.65 594.9"/><path class="cls-12" d="M805.84,426c-88.35-3.76-128.43,18.93-148.29,43-10,12.12-16.55,26.62-35.31,38.42-22.7,14.29-49.33,15.86-73.52,12.68"/><path class="cls-15" d="M805.84,410.92A15,15,0,1,1,790,425.09,15,15,0,0,1,805.84,410.92Z"/><path d="M806,408.93a17,17,0,1,0,16,18,17,17,0,0,0-16-18C796.57,408.39,815.33,409.46,806,408.93Zm-1.7,30A13,13,0,1,1,818,426.68,13.05,13.05,0,0,1,804.25,439Z"/><polygon points="521.05 514.4 563.22 506.05 550.84 520.21 557 537.97 521.05 514.4"/><path class="cls-12" d="M800.25,584.84a300.83,300.83,0,0,0-104.6,10.06c-58.35,16.48-81.45,43-121.41,38.12-18.92-2.32-44.4-12-72.63-45.22"/><path class="cls-15" d="M800.81,569.86a15,15,0,1,1-16.39,13.55A15,15,0,0,1,800.81,569.86Z"/><path d="M801,567.87a17,17,0,1,0,15.35,18.58A17.06,17.06,0,0,0,801,567.87Zm-2.84,30a13,13,0,1,1,14.21-11.75,13.06,13.06,0,0,1-14.21,11.75Z"/><polygon points="484.59 565.26 521.7 586.96 503.05 589.35 495.89 606.73 484.59 565.26"/><line class="cls-12" x1="1296.82" x2="1296.82" y2="3"/><line class="cls-13" x1="1296.82" y1="9" x2="1296.82" y2="690.18"/><line class="cls-12" x1="1296.82" y1="693.18" x2="1296.82" y2="696.18"/><line class="cls-12" x1="1296.88" y1="698.18" x2="1293.88" y2="698.18"/><line class="cls-14" x1="1287.95" y1="698.18" x2="828.03" y2="698.18"/><line class="cls-12" x1="825.06" y1="698.18" x2="822.06" y2="698.18"/></svg>